<svg width="32" height="33" viewBox="0 0 32 33" fill="none" xmlns="http://www.w3.org/2000/svg">
<g clip-path="url(#clip0_895_1986)">
<path d="M6.5625 23.0625C2.94375 23.0625 0 26.0687 0 29.6875V31.5625C0 32.0876 0.412437 32.5 0.9375 32.5H12.1875C12.7126 32.5 13.125 32.0876 13.125 31.5625V29.6875C13.125 26.0687 10.1812 23.0625 6.5625 23.0625Z" fill="#017EB7"/>
<path d="M6.5625 15.5625C3.975 15.5625 1.875 17.6625 1.875 20.25C1.875 22.8375 3.975 24.9375 6.5625 24.9375C9.15 24.9375 11.25 22.8375 11.25 20.25C11.25 17.6625 9.15 15.5625 6.5625 15.5625Z" fill="#017EB7"/>
<path d="M25.4375 23.0625C21.8187 23.0625 18.875 26.0687 18.875 29.6875V31.5625C18.875 32.0876 19.2874 32.5 19.8125 32.5H31.0625C31.5876 32.5 32 32.0876 32 31.5625V29.6875C32 26.0687 29.0562 23.0625 25.4375 23.0625Z" fill="#017EB7"/>
<path d="M25.4375 15.5625C22.85 15.5625 20.75 17.6625 20.75 20.25C20.75 22.8375 22.85 24.9375 25.4375 24.9375C28.025 24.9375 30.125 22.8375 30.125 20.25C30.125 17.6625 28.025 15.5625 25.4375 15.5625Z" fill="#017EB7"/>
<path d="M21.9437 4.875L18.3625 4.35006L16.75 0.974372C16.6188 0.693059 16.3187 0.524247 16 0.505622C15.625 0.468059 15.2313 0.618122 15.0625 0.974372L13.45 4.35006L9.84997 4.875C9.08129 4.9875 8.78135 5.925 9.34379 6.46881L11.9313 9L11.3313 12.5999C11.2 13.35 12.0063 13.95 12.6812 13.575L15.9063 11.8874L16 11.9437L19.1312 13.575C19.8063 13.9312 20.6125 13.3687 20.4813 12.5999L19.8625 9L22.4688 6.46881C23.0313 5.925 22.7126 4.9875 21.9437 4.875Z" fill="#0BAEEC"/>
<path d="M22.4688 6.46905L19.8625 9.00023L20.4813 12.6002C20.6126 13.369 19.8063 13.9315 19.1313 13.5752L16 11.944V0.505859C16.3187 0.524484 16.6188 0.693297 16.7501 0.974609L18.3626 4.3503L21.9437 4.87523C22.7126 4.98773 23.0312 5.92523 22.4688 6.46905Z" fill="#0BAEEC"/>
<path d="M19.042 23.8139C20.0484 22.954 20.6875 21.6766 20.6875 20.25C20.6875 17.6625 18.5875 15.5625 16 15.5625C13.4125 15.5625 11.3125 17.6625 11.3125 20.25C11.3125 21.6778 11.9527 22.9562 12.9606 23.8162C10.8153 24.9689 9.4375 27.3504 9.4375 29.8749V32.5H22.5625V29.6875C22.5625 27.1575 21.1326 24.9271 19.042 23.8139Z" fill="#0BAEEC"/>
<path d="M19.042 23.8139C20.0484 22.954 20.6875 21.6766 20.6875 20.25C20.6875 17.6625 18.5875 15.5625 16 15.5625V32.5H22.5625V29.6875C22.5625 27.1575 21.1326 24.9271 19.042 23.8139Z" fill="#0BAEEC"/>
</g>
<defs>
<clipPath id="clip0_895_1986">
<rect width="32" height="32" fill="white" transform="translate(0 0.5)"/>
</clipPath>
</defs>
</svg>
