<svg width="32" height="33" viewBox="0 0 32 33" fill="none" xmlns="http://www.w3.org/2000/svg">
<g clip-path="url(#clip0_895_1998)">
<path d="M31.7721 19.693C32.0157 19.9742 32.0719 20.3678 31.9032 20.7051C31.7532 21.0426 31.4347 21.2487 31.0598 21.2487H25.3618L19.8137 18.3809L7.64281 12.1394C7.58662 11.7457 7.56787 11.352 7.56787 10.9398C7.56787 5.26042 13.1034 0.505859 19.8137 0.505859C26.5239 0.505859 31.997 5.26042 31.997 10.9398C31.997 13.189 31.1347 15.3445 29.5603 17.1252L31.7721 19.693Z" fill="#017EB7"/>
<path d="M31.7719 19.693L29.5602 17.1252C31.1346 15.3445 31.9969 13.1891 31.9969 10.9398C31.9969 5.26042 26.5237 0.505859 19.8136 0.505859C19.8037 0.505859 19.7938 0.506172 19.7839 0.506172V18.3657L19.8136 18.3809L25.3617 21.2487H31.0597C31.4346 21.2487 31.7532 21.0425 31.9031 20.7051C32.0717 20.3678 32.0156 19.9743 31.7719 19.693Z" fill="#017EB7"/>
<path d="M13.1908 10.3213C5.9558 10.3213 0.00785945 15.2884 0.00785945 21.3987C0.00785945 23.8542 0.963797 26.2158 2.68817 28.1277L0.232734 30.9392C0.11403 31.0761 0.0368616 31.2441 0.0102916 31.4233C-0.0162784 31.6026 0.00885295 31.7857 0.0827345 31.9512C0.251484 32.2887 0.570047 32.4949 0.944984 32.4949H14.1279C19.4698 32.4949 26.3737 28.0152 26.3737 21.3986C26.3738 15.2884 20.4257 10.3213 13.1908 10.3213Z" fill="#0BAEEC"/>
<path d="M13.1909 10.3213H13.187V32.4949H14.1281C19.4699 32.4949 26.3739 28.0152 26.3739 21.3986C26.3739 15.2884 20.4258 10.3213 13.1909 10.3213Z" fill="#0BAEEC"/>
<path d="M7.56773 23.1228C6.53448 23.1228 5.69336 22.2817 5.69336 21.2484C5.69336 20.2151 6.53442 19.374 7.56773 19.374C8.60105 19.374 9.44211 20.2151 9.44211 21.2484C9.44211 22.2817 8.60098 23.1228 7.56773 23.1228ZM13.1908 19.3741C12.1599 19.3741 11.3164 20.2175 11.3164 21.2485C11.3164 22.2794 12.1599 23.1228 13.1908 23.1228C14.2217 23.1228 15.0652 22.2794 15.0652 21.2485C15.0652 20.2175 14.2216 19.3741 13.1908 19.3741Z" fill="white"/>
<path d="M18.8765 23.1228C17.8432 23.1228 17.0021 22.2817 17.0021 21.2484C17.0021 20.2151 17.8432 19.374 18.8765 19.374C19.9098 19.374 20.7509 20.2151 20.7509 21.2484C20.7509 22.2817 19.9097 23.1228 18.8765 23.1228ZM18.8765 21.2466V21.2484V21.2466ZM15.0653 21.2485C15.0653 22.2793 14.2219 23.1228 13.1909 23.1228V19.3741C14.2217 19.3741 15.0653 20.2175 15.0653 21.2485Z" fill="white"/>
</g>
<defs>
<clipPath id="clip0_895_1998">
<rect width="32" height="32" fill="white" transform="translate(0 0.5)"/>
</clipPath>
</defs>
</svg>
