<svg width="108" height="91" viewBox="0 0 108 91" fill="none" xmlns="http://www.w3.org/2000/svg">
<g clip-path="url(#clip0_18555_8552)">
<path d="M54.1177 45.5002C54.1177 46.565 53.797 47.6295 53.2072 48.4279L26.4154 88.3626C25.4512 89.8008 23.844 90.7592 21.968 90.7592H5.89311C2.94689 90.7592 0.535156 88.3626 0.535156 85.4349C0.535156 84.3692 0.856905 83.3046 1.44565 82.5062L26.2544 45.5002L1.44565 8.49324C0.856905 7.69504 0.535156 6.63028 0.535156 5.56553C0.535156 2.63681 2.94689 0.240234 5.89311 0.240234H21.968C23.844 0.240234 25.451 1.19867 26.4154 2.63682L53.2072 42.5715C53.797 43.37 54.1177 44.4345 54.1177 45.5002ZM107.701 45.5002C107.701 46.565 107.38 47.6295 106.79 48.4279L79.999 88.3626C79.0345 89.8008 77.4265 90.7592 75.5515 90.7592H59.4767C56.5294 90.7592 54.1177 88.3626 54.1177 85.4349C54.1177 84.3692 54.4395 83.3046 55.0292 82.5062L79.838 45.5002L55.0292 8.49324C54.4395 7.69479 54.1177 6.63028 54.1177 5.56553C54.1177 2.63681 56.5294 0.240234 59.4767 0.240234H75.5515C77.4265 0.240234 79.0345 1.19867 79.999 2.63682L106.79 42.5715C107.38 43.37 107.701 44.4345 107.701 45.5002Z" fill="url(#paint0_linear_18555_8552)"/>
</g>
<defs>
<linearGradient id="paint0_linear_18555_8552" x1="107.701" y1="44.4593" x2="13.1191" y2="44.4593" gradientUnits="userSpaceOnUse">
<stop stop-color="#008464"/>
<stop offset="1" stop-color="#D4D5D8"/>
</linearGradient>
<clipPath id="clip0_18555_8552">
<rect width="108" height="91" fill="white"/>
</clipPath>
</defs>
</svg>
