<svg width="72" height="52" viewBox="0 0 72 52" fill="none" xmlns="http://www.w3.org/2000/svg">
  <g clip-path="url(#clip0_12893_132365)">
    <path
      d="M0 14.165V44.7954C0 48.2501 2.83885 51.0607 6.32824 51.0607H65.6718C69.1611 51.0607 72 48.2501 72 44.7954V14.165H0Z"
      fill="#4C4A40" />
    <path d="M36.001 51.0607H65.6721C69.1615 51.0607 72.0003 48.2501 72.0003 44.7954V14.165H36.001V51.0607Z"
      fill="#1F1E1A" />
    <path
      d="M72 14.1652V7.20378C72 3.74909 69.1611 0.938477 65.6718 0.938477H6.32824C2.83885 0.938477 0 3.74909 0 7.20378V14.1652H72Z"
      fill="#FFCF2C" />
    <path d="M65.6721 0.938477H36.001V14.1652H72.0003V7.20378C72.0003 3.74909 69.1615 0.938477 65.6721 0.938477Z"
      fill="#FFA81C" />
    <path d="M0 12.0767H72V16.2535H0V12.0767Z" fill="#FFF566" />
    <path
      d="M15.0896 25.2408C15.063 25.135 15.0361 25.0291 15.0361 24.9499C15.0361 23.9711 16.5591 23.2568 17.7081 23.2568C18.3762 23.2568 18.9106 23.4685 19.0707 24.024L22.8116 37.5949L26.5255 24.024C26.686 23.4685 27.2202 23.2568 27.8882 23.2568C29.0371 23.2568 30.5601 23.9711 30.5601 24.9499C30.5601 25.0291 30.5334 25.135 30.5067 25.2408L25.5368 41.3776C25.2429 42.3035 24.0405 42.7532 22.8114 42.7532C21.5823 42.7532 20.38 42.3035 20.0861 41.3776L15.0896 25.2408ZM33.9165 24.5001C33.9165 23.6272 34.9585 23.2568 36.0006 23.2568C37.0426 23.2568 38.0847 23.6272 38.0847 24.5001V41.3249C38.0847 42.1714 37.0426 42.5946 36.0006 42.5946C34.9585 42.5946 33.9165 42.1714 33.9165 41.3249V24.5001Z"
      fill="#FFF566" />
    <path
      d="M38.0851 41.3249V24.5001C38.0851 23.6272 37.043 23.2568 36.001 23.2568V42.5946C37.043 42.5946 38.0851 42.1714 38.0851 41.3249ZM43.1714 24.5001C43.1714 23.8388 43.786 23.2568 44.7213 23.2568H50.2522C53.7792 23.2568 56.558 24.897 56.558 29.3411V29.4734C56.558 33.9177 53.6722 35.6108 49.9851 35.6108H47.3398V41.3247C47.3398 42.1712 46.2977 42.5945 45.2557 42.5945C44.2136 42.5945 43.1716 42.1712 43.1716 41.3247L43.1714 24.5001ZM47.3396 26.8545V32.4363H49.985C51.4812 32.4363 52.3897 31.5898 52.3897 29.791V29.5C52.3897 27.701 51.4812 26.8545 49.985 26.8545H47.3396Z"
      fill="#FFCF2C" />
  </g>
  <defs>
    <clipPath id="clip0_12893_132365">
      <rect width="72" height="50.4" fill="white" transform="translate(0 0.799805)" />
    </clipPath>
  </defs>
</svg>