<?xml version="1.0" encoding="utf-8"?>
<!-- Generator: Adobe Illustrator 28.1.0, SVG Export Plug-In . SVG Version: 6.00 Build 0)  -->
<svg version="1.1" id="Layer_1" xmlns="http://www.w3.org/2000/svg" xmlns:xlink="http://www.w3.org/1999/xlink" x="0px" y="0px"
	 viewBox="0 0 1024 1024" style="enable-background:new 0 0 1024 1024;" xml:space="preserve">
<style type="text/css">
	.st0{clip-path:url(#SVGID_00000063609746735688003110000006775853939157243300_);}
	.st1{clip-path:url(#SVGID_00000043452848218208676850000010971214924766391176_);fill:#0B0B0B;}
	.st2{clip-path:url(#SVGID_00000136369246248789846180000012007321051986820480_);}
	.st3{clip-path:url(#SVGID_00000077295984189489157970000003476589806440682116_);fill:#FFF240;}
	.st4{clip-path:url(#SVGID_00000044160396932782760870000004776382322894349706_);}
	.st5{clip-path:url(#SVGID_00000101808736364000568820000011675178602842205072_);fill:#0BAEEC;}
	.st6{clip-path:url(#SVGID_00000127040856983349899520000004476298068116633218_);}
	.st7{clip-path:url(#SVGID_00000116920647854174385270000009029065925851717819_);fill:#EC272B;}
	.st8{clip-path:url(#SVGID_00000098222697022254159570000009663183563996200895_);}
	.st9{clip-path:url(#SVGID_00000092430014527473657130000003772844217131794867_);fill:#0B0B0B;}
	.st10{fill:#FFFFFF;}
	.st11{clip-path:url(#SVGID_00000109731934290453549110000003021486355189760699_);}
	.st12{clip-path:url(#SVGID_00000138536771535752880240000001945021567615025287_);fill:#FFFFFF;}
	.st13{clip-path:url(#SVGID_00000011004571249944757640000014137184150635978648_);}
	.st14{clip-path:url(#SVGID_00000074429850177960638460000001539215720383764884_);fill:#FFF240;}
	.st15{clip-path:url(#SVGID_00000085958782665337729100000002694396309633385108_);}
	.st16{clip-path:url(#SVGID_00000017510014427814819680000001612683478088506288_);fill:#0BAEEC;}
	.st17{clip-path:url(#SVGID_00000178887272214535472880000013843765012785561508_);}
	.st18{clip-path:url(#SVGID_00000049943701648395836890000007802886407770887554_);fill:#EC272B;}
	.st19{clip-path:url(#SVGID_00000021833569611174170140000009357921154532232855_);}
	.st20{clip-path:url(#SVGID_00000174604074453713625690000007362953065314023330_);fill:#FFFFFF;}
</style>
<g>
	<g>
		<defs>
			<path id="SVGID_1_" d="M892.27,594.93c0,23.73-19.09,47.24-61.08,47.24c-22.27,0-41.78-9.41-53.66-21.16l21.84-21.8
				c6.15,6.41,18.03,13.04,31.81,13.04c15.91,0,24.6-7.27,24.6-16.46c0-29.71-73.8-14.32-73.8-70.12
				c0-22.66,20.57-45.96,57.26-45.96c22.69,0,39.66,8.76,52.17,21.16l-21.63,21.8c-7-7.05-16.75-13.04-29.69-13.04
				c-14.42,0-21.63,8.55-21.63,16.03C818.47,550.25,892.27,538.28,892.27,594.93z M751.14,606.36v29.93
				c-7,1.92-16.33,3.21-27.15,3.21c-29.69,0-47.29-19.88-47.29-42.75v-83.37h-29.05v-29.93h29.05v-43.82h37.11v43.82h35.63v29.93
				h-35.63v78.03c0,11.54,5.73,18.17,20.57,18.17C739.9,609.57,746.05,608.29,751.14,606.36z M625.9,540.63v96.2h-37.11v-90.85
				c0-23.51-11.24-34.84-29.69-34.84c-20.57,0-36.05,15.39-36.05,48.74v76.96h-37.11V482.91h36.05v23.73
				c6.79-15.82,24.18-26.93,47.72-26.93C602.79,479.71,625.9,503.01,625.9,540.63z M449.77,483.45v153.91h-37.11V483.45H449.77z
				 M371.3,423.59v213.77h-37.11V423.59H371.3z M293.04,483.45v140.02c0,39.12-31.39,70.54-80.17,70.54
				c-29.48,0-48.99-10.9-60.44-22.23l21.21-21.38c7,6.84,19.3,13.68,37.54,13.68c25.45,0,44.54-16.46,44.54-40.62v-3.8
				c-9.29,7.14-21.92,14.16-46.04,14.99c-34.15,0.43-76.62-27.65-77.95-76.47c0-47.03,36.52-79.45,75.1-80.36
				c24.09,0,40.4,5.62,50.16,16.47v-10.85H293.04z M212.27,603.49c25.75,0,46.63-20.9,46.63-46.67c0-25.78-20.88-46.67-46.63-46.67
				c-25.75,0-46.63,20.9-46.63,46.67C165.64,582.59,186.52,603.49,212.27,603.49z"/>
		</defs>
		<clipPath id="SVGID_00000004536991944015991920000017705371721835700373_">
			<use xlink:href="#SVGID_1_"  style="overflow:visible;"/>
		</clipPath>
		<g style="clip-path:url(#SVGID_00000004536991944015991920000017705371721835700373_);">
			<defs>
				<rect id="SVGID_00000139980052593860599540000009690127776028954296_" x="92.29" y="71.49" width="838.01" height="642.24"/>
			</defs>
			<clipPath id="SVGID_00000058575635176292526730000011181135967228785044_">
				<use xlink:href="#SVGID_00000139980052593860599540000009690127776028954296_"  style="overflow:visible;"/>
			</clipPath>
			
				<rect x="124.68" y="416.55" style="clip-path:url(#SVGID_00000058575635176292526730000011181135967228785044_);fill:#0B0B0B;" width="774.63" height="284.5"/>
		</g>
	</g>
	<g>
		<defs>
			<polygon id="SVGID_00000174586254281607496400000006104257417303820461_" points="454.73,134.88 511.1,216.75 606.72,215.27 
				551.14,295.12 582.79,390.11 492.11,358.25 416.73,417.9 416.38,317.67 337.83,260.27 428.07,230.64 			"/>
		</defs>
		<clipPath id="SVGID_00000070094064834270460770000000705332343022313909_">
			<use xlink:href="#SVGID_00000174586254281607496400000006104257417303820461_"  style="overflow:visible;"/>
		</clipPath>
		<g style="clip-path:url(#SVGID_00000070094064834270460770000000705332343022313909_);">
			<defs>
				<rect id="SVGID_00000005986026880330764370000000417775482169939350_" x="92.29" y="71.49" width="838.01" height="642.24"/>
			</defs>
			<clipPath id="SVGID_00000110467241068246655510000016523693060987103142_">
				<use xlink:href="#SVGID_00000005986026880330764370000000417775482169939350_"  style="overflow:visible;"/>
			</clipPath>
			
				<rect x="334.21" y="125.92" transform="matrix(0.9863 -0.165 0.165 0.9863 -37.9127 82.5155)" style="clip-path:url(#SVGID_00000110467241068246655510000016523693060987103142_);fill:#FFF240;" width="286.71" height="286.95"/>
		</g>
	</g>
	<g>
		<defs>
			<polygon id="SVGID_00000121244814234250314910000018058983218118133912_" points="505.93,114.88 562.41,196.73 657.6,195.32 
				601.86,275.19 634.19,370.07 543.31,338.25 467.74,397.93 467.42,297.69 388.72,240.32 479.18,210.65 			"/>
		</defs>
		<clipPath id="SVGID_00000144336607301016887820000006837059634464764321_">
			<use xlink:href="#SVGID_00000121244814234250314910000018058983218118133912_"  style="overflow:visible;"/>
		</clipPath>
		<g style="clip-path:url(#SVGID_00000144336607301016887820000006837059634464764321_);">
			<defs>
				<rect id="SVGID_00000134938481313759111150000005465934573724455816_" x="92.29" y="71.49" width="838.01" height="642.24"/>
			</defs>
			<clipPath id="SVGID_00000036219583438234616570000002600670808576327353_">
				<use xlink:href="#SVGID_00000134938481313759111150000005465934573724455816_"  style="overflow:visible;"/>
			</clipPath>
			
				<rect x="385.1" y="105.97" transform="matrix(0.9863 -0.165 0.165 0.9863 -33.9221 90.6404)" style="clip-path:url(#SVGID_00000036219583438234616570000002600670808576327353_);fill:#0BAEEC;" width="286.71" height="286.95"/>
		</g>
	</g>
	<g>
		<defs>
			<polygon id="SVGID_00000069357361208846875450000018132665076841996710_" points="472.75,149.45 529.22,231.3 624.42,229.89 
				568.68,309.76 601.01,404.64 510.13,372.82 434.56,432.5 434.24,332.26 355.53,274.89 446,245.22 			"/>
		</defs>
		<clipPath id="SVGID_00000168116092772301418190000006749817869135886744_">
			<use xlink:href="#SVGID_00000069357361208846875450000018132665076841996710_"  style="overflow:visible;"/>
		</clipPath>
		<g style="clip-path:url(#SVGID_00000168116092772301418190000006749817869135886744_);">
			<defs>
				<rect id="SVGID_00000105398570627038955230000011444316299362433169_" x="92.29" y="71.49" width="838.01" height="642.24"/>
			</defs>
			<clipPath id="SVGID_00000031199919389970123630000006202131461192496028_">
				<use xlink:href="#SVGID_00000105398570627038955230000011444316299362433169_"  style="overflow:visible;"/>
			</clipPath>
			
				<rect x="351.91" y="140.54" transform="matrix(0.9863 -0.165 0.165 0.9863 -40.0829 85.6373)" style="clip-path:url(#SVGID_00000031199919389970123630000006202131461192496028_);fill:#EC272B;" width="286.71" height="286.95"/>
		</g>
	</g>
	<g>
		<defs>
			<polygon id="SVGID_00000077316591595115231360000007552678447315313087_" points="489.97,136.09 546.45,217.93 641.64,216.53 
				585.9,296.4 618.23,391.28 527.35,359.46 451.78,419.13 451.46,318.9 372.75,261.52 463.22,231.86 			"/>
		</defs>
		<clipPath id="SVGID_00000103261971753070039700000014547338950037668491_">
			<use xlink:href="#SVGID_00000077316591595115231360000007552678447315313087_"  style="overflow:visible;"/>
		</clipPath>
		<g style="clip-path:url(#SVGID_00000103261971753070039700000014547338950037668491_);">
			<defs>
				<rect id="SVGID_00000101821172965651221460000010635963032836957629_" x="92.29" y="71.49" width="838.01" height="642.24"/>
			</defs>
			<clipPath id="SVGID_00000004528575071438884760000000427476697577586352_">
				<use xlink:href="#SVGID_00000101821172965651221460000010635963032836957629_"  style="overflow:visible;"/>
			</clipPath>
			
				<rect x="369.13" y="127.17" transform="matrix(0.9863 -0.165 0.165 0.9863 -37.6411 88.297)" style="clip-path:url(#SVGID_00000004528575071438884760000000427476697577586352_);fill:#0B0B0B;" width="286.71" height="286.95"/>
		</g>
	</g>
</g>
<path d="M724.57,811.64c-2.65-2.3-5.96-3.45-9.94-3.45c-3.79,0-6.99,1.11-9.6,3.31c-2.6,2.21-4.21,5.35-4.83,9.41h28.34
	C728.54,817.02,727.22,813.93,724.57,811.64z M724.57,811.64c-2.65-2.3-5.96-3.45-9.94-3.45c-3.79,0-6.99,1.11-9.6,3.31
	c-2.6,2.21-4.21,5.35-4.83,9.41h28.34C728.54,817.02,727.22,813.93,724.57,811.64z M565.98,814.42c-2.96-3.18-6.6-4.77-10.93-4.77
	c-4.41,0-8.08,1.57-10.99,4.7s-4.37,7.7-4.37,13.71c0,5.91,1.44,10.46,4.3,13.64c2.87,3.18,6.47,4.77,10.8,4.77
	c4.32,0,8.01-1.59,11.06-4.77c3.04-3.18,4.57-7.73,4.57-13.64C570.42,822.14,568.94,817.59,565.98,814.42z M724.57,811.64
	c-2.65-2.3-5.96-3.45-9.94-3.45c-3.79,0-6.99,1.11-9.6,3.31c-2.6,2.21-4.21,5.35-4.83,9.41h28.34
	C728.54,817.02,727.22,813.93,724.57,811.64z M724.57,811.64c-2.65-2.3-5.96-3.45-9.94-3.45c-3.79,0-6.99,1.11-9.6,3.31
	c-2.6,2.21-4.21,5.35-4.83,9.41h28.34C728.54,817.02,727.22,813.93,724.57,811.64z M565.98,814.42c-2.96-3.18-6.6-4.77-10.93-4.77
	c-4.41,0-8.08,1.57-10.99,4.7s-4.37,7.7-4.37,13.71c0,5.91,1.44,10.46,4.3,13.64c2.87,3.18,6.47,4.77,10.8,4.77
	c4.32,0,8.01-1.59,11.06-4.77c3.04-3.18,4.57-7.73,4.57-13.64C570.42,822.14,568.94,817.59,565.98,814.42z M332.24,814.68
	c-3.14-3.26-6.96-4.9-11.46-4.9s-8.32,1.61-11.45,4.83c-3.14,3.23-4.71,7.67-4.71,13.31c0,5.66,1.57,10.14,4.71,13.45
	c3.13,3.31,6.95,4.96,11.45,4.96s8.32-1.63,11.46-4.9c3.13-3.26,4.7-7.72,4.7-13.37C336.94,822.41,335.37,817.95,332.24,814.68z
	 M423.62,814.61c-3.14-3.22-7-4.83-11.59-4.83c-4.51,0-8.33,1.64-11.46,4.9c-3.13,3.27-4.7,7.73-4.7,13.38
	c0,5.65,1.57,10.11,4.7,13.37c3.13,3.27,6.95,4.9,11.46,4.9c4.5,0,8.34-1.65,11.52-4.96s4.77-7.79,4.77-13.45
	C428.32,822.28,426.75,817.84,423.62,814.61z M565.98,814.42c-2.96-3.18-6.6-4.77-10.93-4.77c-4.41,0-8.08,1.57-10.99,4.7
	s-4.37,7.7-4.37,13.71c0,5.91,1.44,10.46,4.3,13.64c2.87,3.18,6.47,4.77,10.8,4.77c4.32,0,8.01-1.59,11.06-4.77
	c3.04-3.18,4.57-7.73,4.57-13.64C570.42,822.14,568.94,817.59,565.98,814.42z M724.57,811.64c-2.65-2.3-5.96-3.45-9.94-3.45
	c-3.79,0-6.99,1.11-9.6,3.31c-2.6,2.21-4.21,5.35-4.83,9.41h28.34C728.54,817.02,727.22,813.93,724.57,811.64z M724.57,811.64
	c-2.65-2.3-5.96-3.45-9.94-3.45c-3.79,0-6.99,1.11-9.6,3.31c-2.6,2.21-4.21,5.35-4.83,9.41h28.34
	C728.54,817.02,727.22,813.93,724.57,811.64z M565.98,814.42c-2.96-3.18-6.6-4.77-10.93-4.77c-4.41,0-8.08,1.57-10.99,4.7
	s-4.37,7.7-4.37,13.71c0,5.91,1.44,10.46,4.3,13.64c2.87,3.18,6.47,4.77,10.8,4.77c4.32,0,8.01-1.59,11.06-4.77
	c3.04-3.18,4.57-7.73,4.57-13.64C570.42,822.14,568.94,817.59,565.98,814.42z M423.62,814.61c-3.14-3.22-7-4.83-11.59-4.83
	c-4.51,0-8.33,1.64-11.46,4.9c-3.13,3.27-4.7,7.73-4.7,13.38c0,5.65,1.57,10.11,4.7,13.37c3.13,3.27,6.95,4.9,11.46,4.9
	c4.5,0,8.34-1.65,11.52-4.96s4.77-7.79,4.77-13.45C428.32,822.28,426.75,817.84,423.62,814.61z M332.24,814.68
	c-3.14-3.26-6.96-4.9-11.46-4.9s-8.32,1.61-11.45,4.83c-3.14,3.23-4.71,7.67-4.71,13.31c0,5.66,1.57,10.14,4.71,13.45
	c3.13,3.31,6.95,4.96,11.45,4.96s8.32-1.63,11.46-4.9c3.13-3.26,4.7-7.72,4.7-13.37C336.94,822.41,335.37,817.95,332.24,814.68z
	 M829.39,746.12h-636.4c-25.85,0-46.8,20.95-46.8,46.8v69.4c0,25.85,20.95,46.8,46.8,46.8h636.4c25.85,0,46.8-20.95,46.8-46.8v-69.4
	C876.19,767.07,855.24,746.12,829.39,746.12z M277.35,790.18h-24.64v74.83h-22.64v-74.83h-24.64v-18.14h71.92V790.18z
	 M359.59,865.01h-22.65v-10.47c-2.21,3.45-5.28,6.23-9.21,8.35c-3.92,2.12-8.49,3.18-13.7,3.18c-6.01,0-11.48-1.57-16.42-4.71
	c-4.95-3.13-8.86-7.59-11.72-13.37c-2.87-5.78-4.31-12.47-4.31-20.07c0-7.59,1.44-14.25,4.31-19.99
	c2.86-5.74,6.77-10.15,11.72-13.25c4.94-3.09,10.46-4.63,16.55-4.63c5.21,0,9.78,1.06,13.71,3.18s6.95,4.9,9.07,8.34v-10.46h22.65
	V865.01z M447.06,847.99c-2.87,5.78-6.78,10.24-11.72,13.37c-4.95,3.14-10.47,4.71-16.56,4.71c-5.12,0-9.65-1.06-13.57-3.18
	c-3.93-2.12-7-4.86-9.21-8.21v33.55h-22.64v-97.12H396v10.46c2.21-3.44,5.25-6.22,9.14-8.34c3.88-2.12,8.43-3.18,13.64-3.18
	c6.09,0,11.61,1.54,16.56,4.63c4.94,3.1,8.85,7.51,11.72,13.25c2.86,5.74,4.3,12.4,4.3,19.99
	C451.36,835.52,449.92,842.21,447.06,847.99z M512.94,865.01h-52.31v-92.97h22.64v75.49h29.67V865.01z M588.36,848.12
	c-3.4,5.79-8.03,10.22-13.91,13.31c-5.87,3.09-12.42,4.64-19.66,4.64c-7.24,0-13.75-1.55-19.54-4.64
	c-5.78-3.09-10.33-7.5-13.64-13.24s-4.96-12.45-4.96-20.13c0-7.6,1.67-14.28,5.03-20.07c3.35-5.78,7.95-10.21,13.77-13.31
	c5.83-3.09,12.36-4.63,19.6-4.63s13.78,1.54,19.6,4.63c5.83,3.1,10.42,7.53,13.78,13.31c3.35,5.79,5.03,12.47,5.03,20.07
	C593.46,835.65,591.76,842.34,588.36,848.12z M648.02,865.01l-22.51-30.99v30.99h-22.65V767h22.65v54.17l22.38-30.06h27.94
	l-30.72,37.08l30.99,36.82H648.02z M751.32,833.49h-51.25c0.35,4.59,1.83,8.1,4.43,10.53c2.61,2.43,5.81,3.64,9.61,3.64
	c5.64,0,9.57-2.39,11.78-7.15H750c-1.24,4.85-3.47,9.22-6.69,13.11c-3.23,3.88-7.27,6.93-12.12,9.14
	c-4.86,2.2-10.29,3.31-16.29,3.31c-7.24,0-13.68-1.55-19.34-4.64c-5.65-3.09-10.06-7.5-13.24-13.24s-4.77-12.45-4.77-20.13
	s1.57-14.39,4.7-20.13c3.14-5.74,7.53-10.15,13.18-13.25c5.65-3.09,12.14-4.63,19.47-4.63c7.15,0,13.51,1.5,19.07,4.5
	c5.56,3,9.91,7.29,13.05,12.85c3.13,5.56,4.7,12.05,4.7,19.46C751.72,828.98,751.58,831.19,751.32,833.49z M806.81,814.28h-6.22
	c-5.65,0-9.89,1.22-12.72,3.65s-4.24,6.68-4.24,12.78v34.3h-22.64v-73.9h22.64v12.31c2.65-4.06,5.96-7.26,9.94-9.6
	c3.97-2.34,8.38-3.51,13.24-3.51V814.28z M724.57,811.64c-2.65-2.3-5.96-3.45-9.94-3.45c-3.79,0-6.99,1.11-9.6,3.31
	c-2.6,2.21-4.21,5.35-4.83,9.41h28.34C728.54,817.02,727.22,813.93,724.57,811.64z M555.05,809.65c-4.41,0-8.08,1.57-10.99,4.7
	s-4.37,7.7-4.37,13.71c0,5.91,1.44,10.46,4.3,13.64c2.87,3.18,6.47,4.77,10.8,4.77c4.32,0,8.01-1.59,11.06-4.77
	c3.04-3.18,4.57-7.73,4.57-13.64c0-5.92-1.48-10.47-4.44-13.64C563.02,811.24,559.38,809.65,555.05,809.65z M412.03,809.78
	c-4.51,0-8.33,1.64-11.46,4.9c-3.13,3.27-4.7,7.73-4.7,13.38c0,5.65,1.57,10.11,4.7,13.37c3.13,3.27,6.95,4.9,11.46,4.9
	c4.5,0,8.34-1.65,11.52-4.96s4.77-7.79,4.77-13.45c0-5.64-1.57-10.08-4.7-13.31C420.48,811.39,416.62,809.78,412.03,809.78z
	 M320.78,809.78c-4.5,0-8.32,1.61-11.45,4.83c-3.14,3.23-4.71,7.67-4.71,13.31c0,5.66,1.57,10.14,4.71,13.45
	c3.13,3.31,6.95,4.96,11.45,4.96s8.32-1.63,11.46-4.9c3.13-3.26,4.7-7.72,4.7-13.37c0-5.65-1.57-10.11-4.7-13.38
	C329.1,811.42,325.28,809.78,320.78,809.78z M423.62,814.61c-3.14-3.22-7-4.83-11.59-4.83c-4.51,0-8.33,1.64-11.46,4.9
	c-3.13,3.27-4.7,7.73-4.7,13.38c0,5.65,1.57,10.11,4.7,13.37c3.13,3.27,6.95,4.9,11.46,4.9c4.5,0,8.34-1.65,11.52-4.96
	s4.77-7.79,4.77-13.45C428.32,822.28,426.75,817.84,423.62,814.61z M565.98,814.42c-2.96-3.18-6.6-4.77-10.93-4.77
	c-4.41,0-8.08,1.57-10.99,4.7s-4.37,7.7-4.37,13.71c0,5.91,1.44,10.46,4.3,13.64c2.87,3.18,6.47,4.77,10.8,4.77
	c4.32,0,8.01-1.59,11.06-4.77c3.04-3.18,4.57-7.73,4.57-13.64C570.42,822.14,568.94,817.59,565.98,814.42z M724.57,811.64
	c-2.65-2.3-5.96-3.45-9.94-3.45c-3.79,0-6.99,1.11-9.6,3.31c-2.6,2.21-4.21,5.35-4.83,9.41h28.34
	C728.54,817.02,727.22,813.93,724.57,811.64z M724.57,811.64c-2.65-2.3-5.96-3.45-9.94-3.45c-3.79,0-6.99,1.11-9.6,3.31
	c-2.6,2.21-4.21,5.35-4.83,9.41h28.34C728.54,817.02,727.22,813.93,724.57,811.64z M565.98,814.42c-2.96-3.18-6.6-4.77-10.93-4.77
	c-4.41,0-8.08,1.57-10.99,4.7s-4.37,7.7-4.37,13.71c0,5.91,1.44,10.46,4.3,13.64c2.87,3.18,6.47,4.77,10.8,4.77
	c4.32,0,8.01-1.59,11.06-4.77c3.04-3.18,4.57-7.73,4.57-13.64C570.42,822.14,568.94,817.59,565.98,814.42z M423.62,814.61
	c-3.14-3.22-7-4.83-11.59-4.83c-4.51,0-8.33,1.64-11.46,4.9c-3.13,3.27-4.7,7.73-4.7,13.38c0,5.65,1.57,10.11,4.7,13.37
	c3.13,3.27,6.95,4.9,11.46,4.9c4.5,0,8.34-1.65,11.52-4.96s4.77-7.79,4.77-13.45C428.32,822.28,426.75,817.84,423.62,814.61z
	 M565.98,814.42c-2.96-3.18-6.6-4.77-10.93-4.77c-4.41,0-8.08,1.57-10.99,4.7s-4.37,7.7-4.37,13.71c0,5.91,1.44,10.46,4.3,13.64
	c2.87,3.18,6.47,4.77,10.8,4.77c4.32,0,8.01-1.59,11.06-4.77c3.04-3.18,4.57-7.73,4.57-13.64
	C570.42,822.14,568.94,817.59,565.98,814.42z M724.57,811.64c-2.65-2.3-5.96-3.45-9.94-3.45c-3.79,0-6.99,1.11-9.6,3.31
	c-2.6,2.21-4.21,5.35-4.83,9.41h28.34C728.54,817.02,727.22,813.93,724.57,811.64z M724.57,811.64c-2.65-2.3-5.96-3.45-9.94-3.45
	c-3.79,0-6.99,1.11-9.6,3.31c-2.6,2.21-4.21,5.35-4.83,9.41h28.34C728.54,817.02,727.22,813.93,724.57,811.64z M565.98,814.42
	c-2.96-3.18-6.6-4.77-10.93-4.77c-4.41,0-8.08,1.57-10.99,4.7s-4.37,7.7-4.37,13.71c0,5.91,1.44,10.46,4.3,13.64
	c2.87,3.18,6.47,4.77,10.8,4.77c4.32,0,8.01-1.59,11.06-4.77c3.04-3.18,4.57-7.73,4.57-13.64
	C570.42,822.14,568.94,817.59,565.98,814.42z M724.57,811.64c-2.65-2.3-5.96-3.45-9.94-3.45c-3.79,0-6.99,1.11-9.6,3.31
	c-2.6,2.21-4.21,5.35-4.83,9.41h28.34C728.54,817.02,727.22,813.93,724.57,811.64z M724.57,811.64c-2.65-2.3-5.96-3.45-9.94-3.45
	c-3.79,0-6.99,1.11-9.6,3.31c-2.6,2.21-4.21,5.35-4.83,9.41h28.34C728.54,817.02,727.22,813.93,724.57,811.64z"/>
</svg>
