<?xml version="1.0" encoding="utf-8"?>
<!-- Generator: Adobe Illustrator 28.1.0, SVG Export Plug-In . SVG Version: 6.00 Build 0)  -->
<svg version="1.1" id="Layer_1" xmlns="http://www.w3.org/2000/svg" xmlns:xlink="http://www.w3.org/1999/xlink" x="0px" y="0px"
	 viewBox="0 0 1024 1024" style="enable-background:new 0 0 1024 1024;" xml:space="preserve">
<style type="text/css">
	.st0{clip-path:url(#SVGID_00000096061176867032378560000001453339471840663680_);}
	.st1{clip-path:url(#SVGID_00000018944146716908905600000018312409686068896643_);fill:#0B0B0B;}
	.st2{clip-path:url(#SVGID_00000035509590544650991370000004374892262472330428_);}
	.st3{clip-path:url(#SVGID_00000111173889656787462340000011193097052897771438_);fill:#FFF240;}
	.st4{clip-path:url(#SVGID_00000034773384718218085610000005338176312342517686_);}
	.st5{clip-path:url(#SVGID_00000033351946549622217210000013908621155615298443_);fill:#0BAEEC;}
	.st6{clip-path:url(#SVGID_00000083084900845877161030000015792555166801493684_);}
	.st7{clip-path:url(#SVGID_00000047744179492846894500000000676250192496688826_);fill:#EC272B;}
	.st8{clip-path:url(#SVGID_00000092455408528106407150000007140239370053786001_);}
	.st9{clip-path:url(#SVGID_00000094586267516950979880000006646442866537307823_);fill:#0B0B0B;}
	.st10{fill:#FFFFFF;}
	.st11{clip-path:url(#SVGID_00000091723208339893425130000010352458025324688824_);}
	.st12{clip-path:url(#SVGID_00000171718262814306650230000017404219650718330035_);fill:#FFFFFF;}
	.st13{clip-path:url(#SVGID_00000174572767336882688160000002705252930055631034_);}
	.st14{clip-path:url(#SVGID_00000049940514184597386650000003258234072374705838_);fill:#FFF240;}
	.st15{clip-path:url(#SVGID_00000051374773593212150850000003638549310449781431_);}
	.st16{clip-path:url(#SVGID_00000095301662197368453550000010044908718665916290_);fill:#0BAEEC;}
	.st17{clip-path:url(#SVGID_00000113322368905198062790000008276982930838664854_);}
	.st18{clip-path:url(#SVGID_00000172437968537467664250000013608851682694746266_);fill:#EC272B;}
	.st19{clip-path:url(#SVGID_00000085946039211082749670000003377428252319357347_);}
	.st20{clip-path:url(#SVGID_00000081616197068491671150000004531041556169280685_);fill:#FFFFFF;}
</style>
<path class="st10" d="M724.57,811.64c-2.65-2.3-5.96-3.45-9.94-3.45c-3.79,0-6.99,1.11-9.6,3.31c-2.6,2.21-4.21,5.35-4.83,9.41
	h28.34C728.54,817.02,727.22,813.93,724.57,811.64z M724.57,811.64c-2.65-2.3-5.96-3.45-9.94-3.45c-3.79,0-6.99,1.11-9.6,3.31
	c-2.6,2.21-4.21,5.35-4.83,9.41h28.34C728.54,817.02,727.22,813.93,724.57,811.64z M565.98,814.42c-2.96-3.18-6.6-4.77-10.93-4.77
	c-4.41,0-8.08,1.57-10.99,4.7s-4.37,7.7-4.37,13.71c0,5.91,1.44,10.46,4.3,13.64c2.87,3.18,6.47,4.77,10.8,4.77
	c4.32,0,8.01-1.59,11.06-4.77c3.04-3.18,4.57-7.73,4.57-13.64C570.42,822.14,568.94,817.59,565.98,814.42z M724.57,811.64
	c-2.65-2.3-5.96-3.45-9.94-3.45c-3.79,0-6.99,1.11-9.6,3.31c-2.6,2.21-4.21,5.35-4.83,9.41h28.34
	C728.54,817.02,727.22,813.93,724.57,811.64z M724.57,811.64c-2.65-2.3-5.96-3.45-9.94-3.45c-3.79,0-6.99,1.11-9.6,3.31
	c-2.6,2.21-4.21,5.35-4.83,9.41h28.34C728.54,817.02,727.22,813.93,724.57,811.64z M565.98,814.42c-2.96-3.18-6.6-4.77-10.93-4.77
	c-4.41,0-8.08,1.57-10.99,4.7s-4.37,7.7-4.37,13.71c0,5.91,1.44,10.46,4.3,13.64c2.87,3.18,6.47,4.77,10.8,4.77
	c4.32,0,8.01-1.59,11.06-4.77c3.04-3.18,4.57-7.73,4.57-13.64C570.42,822.14,568.94,817.59,565.98,814.42z M332.24,814.68
	c-3.14-3.26-6.96-4.9-11.46-4.9s-8.32,1.61-11.45,4.83c-3.14,3.23-4.71,7.67-4.71,13.31c0,5.66,1.57,10.14,4.71,13.45
	c3.13,3.31,6.95,4.96,11.45,4.96s8.32-1.63,11.46-4.9c3.13-3.26,4.7-7.72,4.7-13.37C336.94,822.41,335.37,817.95,332.24,814.68z
	 M423.62,814.61c-3.14-3.22-7-4.83-11.59-4.83c-4.51,0-8.33,1.64-11.46,4.9c-3.13,3.27-4.7,7.73-4.7,13.38
	c0,5.65,1.57,10.11,4.7,13.37c3.13,3.27,6.95,4.9,11.46,4.9c4.5,0,8.34-1.65,11.52-4.96s4.77-7.79,4.77-13.45
	C428.32,822.28,426.75,817.84,423.62,814.61z M565.98,814.42c-2.96-3.18-6.6-4.77-10.93-4.77c-4.41,0-8.08,1.57-10.99,4.7
	s-4.37,7.7-4.37,13.71c0,5.91,1.44,10.46,4.3,13.64c2.87,3.18,6.47,4.77,10.8,4.77c4.32,0,8.01-1.59,11.06-4.77
	c3.04-3.18,4.57-7.73,4.57-13.64C570.42,822.14,568.94,817.59,565.98,814.42z M724.57,811.64c-2.65-2.3-5.96-3.45-9.94-3.45
	c-3.79,0-6.99,1.11-9.6,3.31c-2.6,2.21-4.21,5.35-4.83,9.41h28.34C728.54,817.02,727.22,813.93,724.57,811.64z M724.57,811.64
	c-2.65-2.3-5.96-3.45-9.94-3.45c-3.79,0-6.99,1.11-9.6,3.31c-2.6,2.21-4.21,5.35-4.83,9.41h28.34
	C728.54,817.02,727.22,813.93,724.57,811.64z M565.98,814.42c-2.96-3.18-6.6-4.77-10.93-4.77c-4.41,0-8.08,1.57-10.99,4.7
	s-4.37,7.7-4.37,13.71c0,5.91,1.44,10.46,4.3,13.64c2.87,3.18,6.47,4.77,10.8,4.77c4.32,0,8.01-1.59,11.06-4.77
	c3.04-3.18,4.57-7.73,4.57-13.64C570.42,822.14,568.94,817.59,565.98,814.42z M423.62,814.61c-3.14-3.22-7-4.83-11.59-4.83
	c-4.51,0-8.33,1.64-11.46,4.9c-3.13,3.27-4.7,7.73-4.7,13.38c0,5.65,1.57,10.11,4.7,13.37c3.13,3.27,6.95,4.9,11.46,4.9
	c4.5,0,8.34-1.65,11.52-4.96s4.77-7.79,4.77-13.45C428.32,822.28,426.75,817.84,423.62,814.61z M332.24,814.68
	c-3.14-3.26-6.96-4.9-11.46-4.9s-8.32,1.61-11.45,4.83c-3.14,3.23-4.71,7.67-4.71,13.31c0,5.66,1.57,10.14,4.71,13.45
	c3.13,3.31,6.95,4.96,11.45,4.96s8.32-1.63,11.46-4.9c3.13-3.26,4.7-7.72,4.7-13.37C336.94,822.41,335.37,817.95,332.24,814.68z
	 M829.39,746.12h-636.4c-25.85,0-46.8,20.95-46.8,46.8v69.4c0,25.85,20.95,46.8,46.8,46.8h636.4c25.85,0,46.8-20.95,46.8-46.8v-69.4
	C876.19,767.07,855.24,746.12,829.39,746.12z M277.35,790.18h-24.64v74.83h-22.64v-74.83h-24.64v-18.14h71.92V790.18z
	 M359.59,865.01h-22.65v-10.47c-2.21,3.45-5.28,6.23-9.21,8.35c-3.92,2.12-8.49,3.18-13.7,3.18c-6.01,0-11.48-1.57-16.42-4.71
	c-4.95-3.13-8.86-7.59-11.72-13.37c-2.87-5.78-4.31-12.47-4.31-20.07c0-7.59,1.44-14.25,4.31-19.99
	c2.86-5.74,6.77-10.15,11.72-13.25c4.94-3.09,10.46-4.63,16.55-4.63c5.21,0,9.78,1.06,13.71,3.18s6.95,4.9,9.07,8.34v-10.46h22.65
	V865.01z M447.06,847.99c-2.87,5.78-6.78,10.24-11.72,13.37c-4.95,3.14-10.47,4.71-16.56,4.71c-5.12,0-9.65-1.06-13.57-3.18
	c-3.93-2.12-7-4.86-9.21-8.21v33.55h-22.64v-97.12H396v10.46c2.21-3.44,5.25-6.22,9.14-8.34c3.88-2.12,8.43-3.18,13.64-3.18
	c6.09,0,11.61,1.54,16.56,4.63c4.94,3.1,8.85,7.51,11.72,13.25c2.86,5.74,4.3,12.4,4.3,19.99
	C451.36,835.52,449.92,842.21,447.06,847.99z M512.94,865.01h-52.31v-92.97h22.64v75.49h29.67V865.01z M588.36,848.12
	c-3.4,5.79-8.03,10.22-13.91,13.31c-5.87,3.09-12.42,4.64-19.66,4.64c-7.24,0-13.75-1.55-19.54-4.64
	c-5.78-3.09-10.33-7.5-13.64-13.24s-4.96-12.45-4.96-20.13c0-7.6,1.67-14.28,5.03-20.07c3.35-5.78,7.95-10.21,13.77-13.31
	c5.83-3.09,12.36-4.63,19.6-4.63s13.78,1.54,19.6,4.63c5.83,3.1,10.42,7.53,13.78,13.31c3.35,5.79,5.03,12.47,5.03,20.07
	C593.46,835.65,591.76,842.34,588.36,848.12z M648.02,865.01l-22.51-30.99v30.99h-22.65V767h22.65v54.17l22.38-30.06h27.94
	l-30.72,37.08l30.99,36.82H648.02z M751.32,833.49h-51.25c0.35,4.59,1.83,8.1,4.43,10.53c2.61,2.43,5.81,3.64,9.61,3.64
	c5.64,0,9.57-2.39,11.78-7.15H750c-1.24,4.85-3.47,9.22-6.69,13.11c-3.23,3.88-7.27,6.93-12.12,9.14
	c-4.86,2.2-10.29,3.31-16.29,3.31c-7.24,0-13.68-1.55-19.34-4.64c-5.65-3.09-10.06-7.5-13.24-13.24s-4.77-12.45-4.77-20.13
	s1.57-14.39,4.7-20.13c3.14-5.74,7.53-10.15,13.18-13.25c5.65-3.09,12.14-4.63,19.47-4.63c7.15,0,13.51,1.5,19.07,4.5
	c5.56,3,9.91,7.29,13.05,12.85c3.13,5.56,4.7,12.05,4.7,19.46C751.72,828.98,751.58,831.19,751.32,833.49z M806.81,814.28h-6.22
	c-5.65,0-9.89,1.22-12.72,3.65s-4.24,6.68-4.24,12.78v34.3h-22.64v-73.9h22.64v12.31c2.65-4.06,5.96-7.26,9.94-9.6
	c3.97-2.34,8.38-3.51,13.24-3.51V814.28z M724.57,811.64c-2.65-2.3-5.96-3.45-9.94-3.45c-3.79,0-6.99,1.11-9.6,3.31
	c-2.6,2.21-4.21,5.35-4.83,9.41h28.34C728.54,817.02,727.22,813.93,724.57,811.64z M555.05,809.65c-4.41,0-8.08,1.57-10.99,4.7
	s-4.37,7.7-4.37,13.71c0,5.91,1.44,10.46,4.3,13.64c2.87,3.18,6.47,4.77,10.8,4.77c4.32,0,8.01-1.59,11.06-4.77
	c3.04-3.18,4.57-7.73,4.57-13.64c0-5.92-1.48-10.47-4.44-13.64C563.02,811.24,559.38,809.65,555.05,809.65z M412.03,809.78
	c-4.51,0-8.33,1.64-11.46,4.9c-3.13,3.27-4.7,7.73-4.7,13.38c0,5.65,1.57,10.11,4.7,13.37c3.13,3.27,6.95,4.9,11.46,4.9
	c4.5,0,8.34-1.65,11.52-4.96s4.77-7.79,4.77-13.45c0-5.64-1.57-10.08-4.7-13.31C420.48,811.39,416.62,809.78,412.03,809.78z
	 M320.78,809.78c-4.5,0-8.32,1.61-11.45,4.83c-3.14,3.23-4.71,7.67-4.71,13.31c0,5.66,1.57,10.14,4.71,13.45
	c3.13,3.31,6.95,4.96,11.45,4.96s8.32-1.63,11.46-4.9c3.13-3.26,4.7-7.72,4.7-13.37c0-5.65-1.57-10.11-4.7-13.38
	C329.1,811.42,325.28,809.78,320.78,809.78z M423.62,814.61c-3.14-3.22-7-4.83-11.59-4.83c-4.51,0-8.33,1.64-11.46,4.9
	c-3.13,3.27-4.7,7.73-4.7,13.38c0,5.65,1.57,10.11,4.7,13.37c3.13,3.27,6.95,4.9,11.46,4.9c4.5,0,8.34-1.65,11.52-4.96
	s4.77-7.79,4.77-13.45C428.32,822.28,426.75,817.84,423.62,814.61z M565.98,814.42c-2.96-3.18-6.6-4.77-10.93-4.77
	c-4.41,0-8.08,1.57-10.99,4.7s-4.37,7.7-4.37,13.71c0,5.91,1.44,10.46,4.3,13.64c2.87,3.18,6.47,4.77,10.8,4.77
	c4.32,0,8.01-1.59,11.06-4.77c3.04-3.18,4.57-7.73,4.57-13.64C570.42,822.14,568.94,817.59,565.98,814.42z M724.57,811.64
	c-2.65-2.3-5.96-3.45-9.94-3.45c-3.79,0-6.99,1.11-9.6,3.31c-2.6,2.21-4.21,5.35-4.83,9.41h28.34
	C728.54,817.02,727.22,813.93,724.57,811.64z M724.57,811.64c-2.65-2.3-5.96-3.45-9.94-3.45c-3.79,0-6.99,1.11-9.6,3.31
	c-2.6,2.21-4.21,5.35-4.83,9.41h28.34C728.54,817.02,727.22,813.93,724.57,811.64z M565.98,814.42c-2.96-3.18-6.6-4.77-10.93-4.77
	c-4.41,0-8.08,1.57-10.99,4.7s-4.37,7.7-4.37,13.71c0,5.91,1.44,10.46,4.3,13.64c2.87,3.18,6.47,4.77,10.8,4.77
	c4.32,0,8.01-1.59,11.06-4.77c3.04-3.18,4.57-7.73,4.57-13.64C570.42,822.14,568.94,817.59,565.98,814.42z M423.62,814.61
	c-3.14-3.22-7-4.83-11.59-4.83c-4.51,0-8.33,1.64-11.46,4.9c-3.13,3.27-4.7,7.73-4.7,13.38c0,5.65,1.57,10.11,4.7,13.37
	c3.13,3.27,6.95,4.9,11.46,4.9c4.5,0,8.34-1.65,11.52-4.96s4.77-7.79,4.77-13.45C428.32,822.28,426.75,817.84,423.62,814.61z
	 M565.98,814.42c-2.96-3.18-6.6-4.77-10.93-4.77c-4.41,0-8.08,1.57-10.99,4.7s-4.37,7.7-4.37,13.71c0,5.91,1.44,10.46,4.3,13.64
	c2.87,3.18,6.47,4.77,10.8,4.77c4.32,0,8.01-1.59,11.06-4.77c3.04-3.18,4.57-7.73,4.57-13.64
	C570.42,822.14,568.94,817.59,565.98,814.42z M724.57,811.64c-2.65-2.3-5.96-3.45-9.94-3.45c-3.79,0-6.99,1.11-9.6,3.31
	c-2.6,2.21-4.21,5.35-4.83,9.41h28.34C728.54,817.02,727.22,813.93,724.57,811.64z M724.57,811.64c-2.65-2.3-5.96-3.45-9.94-3.45
	c-3.79,0-6.99,1.11-9.6,3.31c-2.6,2.21-4.21,5.35-4.83,9.41h28.34C728.54,817.02,727.22,813.93,724.57,811.64z M565.98,814.42
	c-2.96-3.18-6.6-4.77-10.93-4.77c-4.41,0-8.08,1.57-10.99,4.7s-4.37,7.7-4.37,13.71c0,5.91,1.44,10.46,4.3,13.64
	c2.87,3.18,6.47,4.77,10.8,4.77c4.32,0,8.01-1.59,11.06-4.77c3.04-3.18,4.57-7.73,4.57-13.64
	C570.42,822.14,568.94,817.59,565.98,814.42z M724.57,811.64c-2.65-2.3-5.96-3.45-9.94-3.45c-3.79,0-6.99,1.11-9.6,3.31
	c-2.6,2.21-4.21,5.35-4.83,9.41h28.34C728.54,817.02,727.22,813.93,724.57,811.64z M724.57,811.64c-2.65-2.3-5.96-3.45-9.94-3.45
	c-3.79,0-6.99,1.11-9.6,3.31c-2.6,2.21-4.21,5.35-4.83,9.41h28.34C728.54,817.02,727.22,813.93,724.57,811.64z"/>
<g>
	<g>
		<defs>
			<path id="SVGID_00000158006660251931186120000002152012560028123571_" d="M892.5,595.48c0,23.74-19.1,47.27-61.12,47.27
				c-22.28,0-41.8-9.41-53.69-21.18l21.86-21.82c6.15,6.42,18.04,13.05,31.83,13.05c15.92,0,24.62-7.27,24.62-16.47
				c0-29.73-73.85-14.33-73.85-70.16c0-22.67,20.58-45.99,57.3-45.99c22.71,0,39.68,8.77,52.2,21.18l-21.64,21.82
				c-7-7.06-16.76-13.05-29.71-13.05c-14.43,0-21.64,8.56-21.64,16.04C818.65,550.77,892.5,538.79,892.5,595.48z M751.28,606.92
				v29.95c-7,1.93-16.34,3.21-27.16,3.21c-29.71,0-47.32-19.89-47.32-42.78v-83.42h-29.07v-29.95h29.07v-43.85h37.14v43.85h35.65
				v29.95h-35.65v78.07c0,11.55,5.73,18.18,20.58,18.18C740.03,610.13,746.18,608.84,751.28,606.92z M625.97,541.15v96.25h-37.14
				v-90.91c0-23.53-11.25-34.86-29.71-34.86c-20.58,0-36.07,15.4-36.07,48.77v77h-37.14v-154h36.07v23.74
				c6.79-15.83,24.19-26.95,47.75-26.95C602.84,480.19,625.97,503.5,625.97,541.15z M449.73,483.93v154H412.6v-154H449.73z
				 M371.22,424.04v213.9h-37.14v-213.9H371.22z M292.91,483.93v140.1c0,39.14-31.41,70.59-80.21,70.59
				c-29.5,0-49.02-10.91-60.48-22.25l21.22-21.39c7,6.84,19.31,13.69,37.56,13.69c25.46,0,44.56-16.47,44.56-40.64v-3.8
				c-9.29,7.15-21.93,14.17-46.07,15c-34.17,0.43-76.66-27.67-78-76.51c0-47.06,36.55-79.49,75.15-80.41
				c24.11,0,40.43,5.62,50.19,16.48v-10.86H292.91z M212.09,604.04c25.77,0,46.65-20.91,46.65-46.7c0-25.79-20.89-46.7-46.65-46.7
				c-25.77,0-46.65,20.91-46.65,46.7C165.44,583.14,186.33,604.04,212.09,604.04z"/>
		</defs>
		<clipPath id="SVGID_00000147919569736403664310000004876789019139486376_">
			<use xlink:href="#SVGID_00000158006660251931186120000002152012560028123571_"  style="overflow:visible;"/>
		</clipPath>
		<g style="clip-path:url(#SVGID_00000147919569736403664310000004876789019139486376_);">
			<defs>
				<rect id="SVGID_00000026156974262102663460000018101658687708421797_" x="92.04" y="71.72" width="838.51" height="642.62"/>
			</defs>
			<clipPath id="SVGID_00000109729972485910984610000009851876011890466695_">
				<use xlink:href="#SVGID_00000026156974262102663460000018101658687708421797_"  style="overflow:visible;"/>
			</clipPath>
			
				<rect x="124.45" y="416.99" style="clip-path:url(#SVGID_00000109729972485910984610000009851876011890466695_);fill:#FFFFFF;" width="775.09" height="284.67"/>
		</g>
	</g>
	<g>
		<defs>
			<polygon id="SVGID_00000133521073958941808850000015106604415682452159_" points="454.69,135.16 511.1,217.07 606.77,215.59 
				551.16,295.49 582.83,390.54 492.09,358.66 416.68,418.34 416.32,318.05 337.73,260.62 428.02,230.97 			"/>
		</defs>
		<clipPath id="SVGID_00000098204110160295721100000007676274450243508102_">
			<use xlink:href="#SVGID_00000133521073958941808850000015106604415682452159_"  style="overflow:visible;"/>
		</clipPath>
		<g style="clip-path:url(#SVGID_00000098204110160295721100000007676274450243508102_);">
			<defs>
				<rect id="SVGID_00000037651512755044809800000010173400631333177784_" x="92.04" y="71.72" width="838.51" height="642.62"/>
			</defs>
			<clipPath id="SVGID_00000078729026166775728790000012088009244419022225_">
				<use xlink:href="#SVGID_00000037651512755044809800000010173400631333177784_"  style="overflow:visible;"/>
			</clipPath>
			
				<rect x="334.1" y="126.19" transform="matrix(0.9863 -0.165 0.165 0.9863 -37.9716 82.517)" style="clip-path:url(#SVGID_00000078729026166775728790000012088009244419022225_);fill:#FFF240;" width="286.88" height="287.12"/>
		</g>
	</g>
	<g>
		<defs>
			<polygon id="SVGID_00000165205968619750083110000000651177464440869275_" points="505.93,115.14 562.44,197.04 657.69,195.63 
				601.92,275.55 634.27,370.49 543.33,338.65 467.71,398.36 467.39,298.06 388.64,240.65 479.16,210.97 			"/>
		</defs>
		<clipPath id="SVGID_00000086658256881807687410000009978858005105414063_">
			<use xlink:href="#SVGID_00000165205968619750083110000000651177464440869275_"  style="overflow:visible;"/>
		</clipPath>
		<g style="clip-path:url(#SVGID_00000086658256881807687410000009978858005105414063_);">
			<defs>
				<rect id="SVGID_00000019639811365532661640000005556504688210085786_" x="92.04" y="71.72" width="838.51" height="642.62"/>
			</defs>
			<clipPath id="SVGID_00000075873338321009073020000009604951143515289780_">
				<use xlink:href="#SVGID_00000019639811365532661640000005556504688210085786_"  style="overflow:visible;"/>
			</clipPath>
			
				<rect x="385.02" y="106.23" transform="matrix(0.9863 -0.165 0.165 0.9863 -33.9786 90.6467)" style="clip-path:url(#SVGID_00000075873338321009073020000009604951143515289780_);fill:#0BAEEC;" width="286.88" height="287.12"/>
		</g>
	</g>
	<g>
		<defs>
			<polygon id="SVGID_00000046315748284908810460000004420749904639432097_" points="472.72,149.74 529.23,231.63 624.48,230.22 
				568.71,310.14 601.06,405.08 510.13,373.24 434.51,432.95 434.19,332.66 355.44,275.25 445.96,245.56 			"/>
		</defs>
		<clipPath id="SVGID_00000126318537942159450250000011973806699386369951_">
			<use xlink:href="#SVGID_00000046315748284908810460000004420749904639432097_"  style="overflow:visible;"/>
		</clipPath>
		<g style="clip-path:url(#SVGID_00000126318537942159450250000011973806699386369951_);">
			<defs>
				<rect id="SVGID_00000054971862836635962000000011520186017814892944_" x="92.04" y="71.72" width="838.51" height="642.62"/>
			</defs>
			<clipPath id="SVGID_00000178901894938501181060000017715493560937713296_">
				<use xlink:href="#SVGID_00000054971862836635962000000011520186017814892944_"  style="overflow:visible;"/>
			</clipPath>
			
				<rect x="351.81" y="140.82" transform="matrix(0.9863 -0.165 0.165 0.9863 -40.1432 85.6406)" style="clip-path:url(#SVGID_00000178901894938501181060000017715493560937713296_);fill:#EC272B;" width="286.88" height="287.12"/>
		</g>
	</g>
	<g>
		<defs>
			<polygon id="SVGID_00000055671743345168428260000018295269607202668223_" points="489.96,136.36 546.47,218.26 641.72,216.85 
				585.95,296.77 618.3,391.71 527.36,359.86 451.74,419.58 451.42,319.28 372.67,261.87 463.19,232.19 			"/>
		</defs>
		<clipPath id="SVGID_00000018199683574613519660000011565825466998062723_">
			<use xlink:href="#SVGID_00000055671743345168428260000018295269607202668223_"  style="overflow:visible;"/>
		</clipPath>
		<g style="clip-path:url(#SVGID_00000018199683574613519660000011565825466998062723_);">
			<defs>
				<rect id="SVGID_00000096744183627961952130000010237870910774561471_" x="92.04" y="71.72" width="838.51" height="642.62"/>
			</defs>
			<clipPath id="SVGID_00000142155803015369902250000010022095158389810090_">
				<use xlink:href="#SVGID_00000096744183627961952130000010237870910774561471_"  style="overflow:visible;"/>
			</clipPath>
			
				<rect x="369.05" y="127.45" transform="matrix(0.9863 -0.165 0.165 0.9863 -37.6999 88.3019)" style="clip-path:url(#SVGID_00000142155803015369902250000010022095158389810090_);fill:#FFFFFF;" width="286.88" height="287.12"/>
		</g>
	</g>
</g>
</svg>
