<svg width="150" height="150" xmlns="http://www.w3.org/2000/svg">
  <rect width="150" height="150" fill="#f9fafb" stroke="#d1d5db" stroke-width="2"/>
  <rect x="20" y="20" width="20" height="20" fill="#374151"/>
  <rect x="50" y="20" width="10" height="10" fill="#374151"/>
  <rect x="70" y="20" width="10" height="10" fill="#374151"/>
  <rect x="90" y="20" width="10" height="10" fill="#374151"/>
  <rect x="110" y="20" width="20" height="20" fill="#374151"/>
  <rect x="20" y="50" width="10" height="10" fill="#374151"/>
  <rect x="30" y="50" width="10" height="10" fill="#374151"/>
  <rect x="50" y="50" width="10" height="10" fill="#374151"/>
  <rect x="70" y="50" width="10" height="10" fill="#374151"/>
  <rect x="90" y="50" width="10" height="10" fill="#374151"/>
  <rect x="110" y="50" width="10" height="10" fill="#374151"/>
  <rect x="120" y="50" width="10" height="10" fill="#374151"/>
  <rect x="20" y="70" width="10" height="10" fill="#374151"/>
  <rect x="50" y="70" width="10" height="10" fill="#374151"/>
  <rect x="90" y="70" width="10" height="10" fill="#374151"/>
  <rect x="110" y="70" width="10" height="10" fill="#374151"/>
  <rect x="20" y="90" width="10" height="10" fill="#374151"/>
  <rect x="50" y="90" width="10" height="10" fill="#374151"/>
  <rect x="70" y="90" width="10" height="10" fill="#374151"/>
  <rect x="110" y="90" width="10" height="10" fill="#374151"/>
  <rect x="20" y="110" width="20" height="20" fill="#374151"/>
  <rect x="50" y="110" width="10" height="10" fill="#374151"/>
  <rect x="70" y="110" width="10" height="10" fill="#374151"/>
  <rect x="90" y="110" width="10" height="10" fill="#374151"/>
  <rect x="110" y="110" width="20" height="20" fill="#374151"/>
  <text x="75" y="145" font-family="Arial, sans-serif" font-size="10" text-anchor="middle" fill="#6b7280">QR Code</text>
</svg>