<svg width="32" height="33" viewBox="0 0 32 33" fill="none" xmlns="http://www.w3.org/2000/svg">
<g clip-path="url(#clip0_895_2008)">
<path fill-rule="evenodd" clip-rule="evenodd" d="M25.95 22.1912C25.8853 21.9902 25.7584 21.8148 25.5877 21.6904C25.417 21.566 25.2112 21.499 25 21.499C24.7888 21.499 24.583 21.566 24.4123 21.6904C24.2416 21.8148 24.1147 21.9902 24.05 22.1912L23.1 25.1027L20.19 26.0492C19.78 26.1832 19.5 26.5672 19.5 27.0002C19.5 27.4332 19.78 27.8172 20.19 27.9512L23.1 28.8977L24.05 31.8092C24.1147 32.0103 24.2416 32.1857 24.4123 32.31C24.583 32.4344 24.7888 32.5015 25 32.5015C25.2112 32.5015 25.417 32.4344 25.5877 32.31C25.7584 32.1857 25.8853 32.0103 25.95 31.8092L26.9 28.8977L29.81 27.9512C30.22 27.8172 30.5 27.4332 30.5 27.0002C30.5 26.5672 30.22 26.1832 29.81 26.0492L26.9 25.1027L25.95 22.1912Z" fill="#017EB7"/>
<path fill-rule="evenodd" clip-rule="evenodd" d="M1.85746e-07 18.9998C1.85746e-07 19.7303 0.47 20.3798 1.165 20.6058L8.51 22.9928L10.895 30.3343C11.0053 30.6731 11.22 30.9682 11.5083 31.1775C11.7966 31.3868 12.1437 31.4995 12.5 31.4995C12.8563 31.4995 13.2034 31.3868 13.4917 31.1775C13.78 30.9682 13.9947 30.6731 14.105 30.3343L16.495 22.9928L23.835 20.6058C24.1737 20.4953 24.4689 20.2806 24.6781 19.9922C24.8874 19.7038 25 19.3566 25 19.0003C25 18.2693 24.53 17.6208 23.835 17.3948L16.495 15.0078L14.105 7.66632C13.9949 7.32733 13.7803 7.03189 13.492 6.82237C13.2037 6.61285 12.8564 6.5 12.5 6.5C12.1436 6.5 11.7963 6.61285 11.508 6.82237C11.2197 7.03189 11.0051 7.32733 10.895 7.66632L8.51 15.0078L1.165 17.3948C0.826214 17.5051 0.531025 17.7197 0.321743 18.008C0.112462 18.2964 -0.000166949 18.6435 1.85746e-07 18.9998Z" fill="#0BAEEC"/>
<path fill-rule="evenodd" clip-rule="evenodd" d="M25.45 1.19124C25.3853 0.990172 25.2584 0.814824 25.0877 0.690433C24.917 0.566042 24.7112 0.499023 24.5 0.499023C24.2888 0.499023 24.083 0.566042 23.9123 0.690433C23.7416 0.814824 23.6147 0.990172 23.55 1.19124L22.11 5.61174L17.69 7.04924C17.28 7.18324 17 7.56724 17 8.00024C17 8.43324 17.28 8.81724 17.69 8.95124L22.11 10.3887L23.55 14.8092C23.6147 15.0103 23.7416 15.1857 23.9123 15.31C24.083 15.4344 24.2888 15.5015 24.5 15.5015C24.7112 15.5015 24.917 15.4344 25.0877 15.31C25.2584 15.1857 25.3853 15.0103 25.45 14.8092L26.89 10.3887L31.31 8.95124C31.72 8.81724 32 8.43324 32 8.00024C32 7.56724 31.72 7.18324 31.31 7.04924L26.89 5.61174L25.45 1.19124Z" fill="#017EB7"/>
<path fill-rule="evenodd" clip-rule="evenodd" d="M4 7H3C2.45 7 2 7.448 2 8C2 8.552 2.45 9 3 9H4V10C4 10.552 4.45 11 5 11C5.55 11 6 10.552 6 10V9H7C7.55 9 8 8.552 8 8C8 7.448 7.55 7 7 7H6V6C6 5.448 5.55 5 5 5C4.45 5 4 5.448 4 6V7Z" fill="#017EB7"/>
</g>
<defs>
<clipPath id="clip0_895_2008">
<rect width="32" height="32" fill="white" transform="translate(0 0.5)"/>
</clipPath>
</defs>
</svg>
