<svg width="72" height="72" viewBox="0 0 72 72" fill="none" xmlns="http://www.w3.org/2000/svg">
<path d="M19.728 42.8397C16.1782 39.5655 13.6987 35.2965 12.6137 30.5907C11.5286 25.8849 11.8884 20.9612 13.6461 16.4631C15.4038 11.9651 18.4775 8.1019 22.4657 5.37852C26.4538 2.65514 31.1707 1.19824 36 1.19824C40.8293 1.19824 45.5462 2.65514 49.5344 5.37852C53.5225 8.1019 56.5963 11.9651 58.3539 16.4631C60.1116 20.9612 60.4714 25.8849 59.3864 30.5907C58.3013 35.2965 55.8218 39.5655 52.272 42.8397H19.728Z" fill="#E8EDEF"/>
<path d="M48 21.6V16.8C48 15.3817 47.7206 13.9773 47.1779 12.667C46.6351 11.3567 45.8396 10.1661 44.8368 9.16325C43.8339 8.16037 42.6433 7.36485 41.333 6.8221C40.0227 6.27935 38.6183 6 37.2 6H34.8C31.9357 6 29.1886 7.13785 27.1632 9.16325C25.1379 11.1886 24 13.9357 24 16.8V21.6H48Z" fill="#242C4C"/>
<path d="M52.272 42.8398C48.5296 46.3086 43.7719 48.4834 38.7 49.0438H33.3C28.2281 48.4834 23.4704 46.3086 19.728 42.8398C21.576 36.5158 27.912 34.7998 32.4 34.7998H39.6C44.088 34.7998 50.424 36.5158 52.272 42.8398Z" fill="#27A2DC"/>
<path d="M39.6 33.0479V34.7999C39.6 35.7546 39.2207 36.6703 38.5455 37.3454C37.8704 38.0206 36.9547 38.3999 36 38.3999C35.0452 38.3999 34.1295 38.0206 33.4544 37.3454C32.7792 36.6703 32.4 35.7546 32.4 34.7999V33.0479H39.6Z" fill="#FCAB8B"/>
<path d="M38.3496 48.3186L40.638 53.1378L45.7536 53.9106C46.2448 54.0039 46.7014 54.2289 47.0747 54.5615C47.448 54.8941 47.7239 55.3219 47.873 55.7991C48.0221 56.2763 48.0387 56.7851 47.9212 57.271C47.8036 57.757 47.5563 58.2019 47.2056 58.5582L43.5036 62.3106L44.3784 67.6086C44.4782 68.0971 44.4376 68.6038 44.2614 69.0701C44.0852 69.5365 43.7806 69.9434 43.3827 70.2439C42.9849 70.5443 42.5101 70.7259 42.0133 70.7678C41.5165 70.8096 41.0181 70.7099 40.5756 70.4802L36 67.9794L31.4244 70.4802C30.9819 70.7099 30.4834 70.8096 29.9867 70.7678C29.4899 70.7259 29.0151 70.5443 28.6172 70.2439C28.2194 69.9434 27.9147 69.5365 27.7385 69.0701C27.5623 68.6038 27.5218 68.0971 27.6216 67.6086L28.4964 62.3106L24.7944 58.5594C24.4437 58.2031 24.1963 57.7582 24.0788 57.2722C23.9612 56.7863 23.9779 56.2775 24.127 55.8003C24.2761 55.3231 24.552 54.8953 24.9253 54.5627C25.2986 54.2301 25.7552 54.0051 26.2464 53.9118L31.362 53.139L33.6504 48.3198C33.8539 47.8671 34.1839 47.4828 34.6007 47.2131C35.0174 46.9435 35.5032 46.7999 35.9996 46.7998C36.496 46.7997 36.9818 46.943 37.3987 47.2124C37.8156 47.4818 38.1458 47.866 38.3496 48.3186ZM11.9628 53.9382L13.6788 57.5538L17.5188 58.1334C17.887 58.2025 18.2296 58.3705 18.5097 58.6193C18.7898 58.8682 18.9969 59.1886 19.1089 59.5461C19.2208 59.9037 19.2334 60.285 19.1452 60.6492C19.0571 61.0133 18.8715 61.3467 18.6084 61.6134L15.828 64.4322L16.4832 68.4054C16.5584 68.7719 16.5283 69.1522 16.3965 69.5023C16.2647 69.8524 16.0365 70.1581 15.7383 70.384C15.4401 70.6099 15.0841 70.7468 14.7114 70.7789C14.3386 70.811 13.9644 70.737 13.632 70.5654L10.2 68.6838L6.76798 70.5594C6.43554 70.731 6.06134 70.805 5.68861 70.7729C5.31588 70.7408 4.95984 70.6039 4.66164 70.378C4.36344 70.1521 4.13525 69.8464 4.00345 69.4963C3.87164 69.1462 3.84159 68.7659 3.91678 68.3994L4.57198 64.4262L1.79998 61.6182C1.53687 61.3515 1.35129 61.0181 1.26313 60.654C1.17496 60.2898 1.18753 59.9085 1.29949 59.5509C1.41144 59.1934 1.61857 58.873 1.89868 58.6241C2.17878 58.3753 2.52131 58.2073 2.88958 58.1382L6.72958 57.5586L8.44558 53.943C8.59942 53.606 8.84677 53.3203 9.15824 53.1198C9.46972 52.9193 9.83221 52.8125 10.2026 52.812C10.5731 52.8115 10.9359 52.9173 11.2479 53.117C11.5599 53.3166 11.808 53.6017 11.9628 53.9382ZM63.5628 53.9382L65.2788 57.5538L69.1188 58.1334C69.487 58.2025 69.8296 58.3705 70.1097 58.6193C70.3898 58.8682 70.5969 59.1886 70.7089 59.5461C70.8208 59.9037 70.8334 60.285 70.7452 60.6492C70.6571 61.0133 70.4715 61.3467 70.2084 61.6134L67.428 64.4322L68.0832 68.4054C68.1584 68.7719 68.1283 69.1522 67.9965 69.5023C67.8647 69.8524 67.6365 70.1581 67.3383 70.384C67.0401 70.6099 66.6841 70.7468 66.3114 70.7789C65.9386 70.811 65.5644 70.737 65.232 70.5654L61.8 68.6838L58.368 70.5594C58.0355 70.731 57.6613 70.805 57.2886 70.7729C56.9159 70.7408 56.5598 70.6039 56.2616 70.378C55.9634 70.1521 55.7353 69.8464 55.6035 69.4963C55.4716 69.1462 55.4416 68.7659 55.5168 68.3994L56.172 64.4262L53.4 61.6182C53.1369 61.3515 52.9513 61.0181 52.8631 60.654C52.775 60.2898 52.7875 59.9085 52.8995 59.5509C53.0114 59.1934 53.2186 58.873 53.4987 58.6241C53.7788 58.3753 54.1213 58.2073 54.4896 58.1382L58.3296 57.5586L60.0456 53.943C60.1994 53.606 60.4468 53.3203 60.7583 53.1198C61.0697 52.9193 61.4322 52.8125 61.8026 52.812C62.1731 52.8115 62.5359 52.9173 62.8479 53.117C63.1599 53.3166 63.408 53.6017 63.5628 53.9382Z" fill="#F5BF32"/>
<path d="M26.4 24.0002C26.4 24.0002 26.4 33.6002 36 33.6002C45.6 33.6002 45.6 24.0002 45.6 24.0002C46.2365 24.0002 46.847 23.7473 47.2971 23.2973C47.7471 22.8472 48 22.2367 48 21.6002C48 20.9637 47.7471 20.3532 47.2971 19.9031C46.847 19.4531 46.2365 19.2002 45.6 19.2002C45.5991 18.3226 45.2633 17.4784 44.6612 16.8399C44.0591 16.2015 43.236 15.8169 42.36 15.7646C39.9989 15.7109 37.738 14.7993 36 13.2002C34.2642 14.7983 32.006 15.7099 29.6472 15.7646C28.7699 15.8151 27.945 16.1989 27.3414 16.8376C26.7378 17.4762 26.401 18.3214 26.4 19.2002C25.7635 19.2002 25.153 19.4531 24.7029 19.9031C24.2529 20.3532 24 20.9637 24 21.6002C24 22.2367 24.2529 22.8472 24.7029 23.2973C25.153 23.7473 25.7635 24.0002 26.4 24.0002Z" fill="#FFBA9C"/>
</svg>
