<svg width="72" height="72" viewBox="0 0 72 72" fill="none" xmlns="http://www.w3.org/2000/svg">
  <path
    d="M54 1.5H12C10.3431 1.5 9 2.84315 9 4.5V61.5C9 63.1569 10.3431 64.5 12 64.5H54C55.6569 64.5 57 63.1569 57 61.5V4.5C57 2.84315 55.6569 1.5 54 1.5Z"
    fill="url(#paint0_linear_16837_33392)" />
  <path
    d="M60 7.5H18C16.3431 7.5 15 8.84315 15 10.5V67.5C15 69.1569 16.3431 70.5 18 70.5H60C61.6569 70.5 63 69.1569 63 67.5V10.5C63 8.84315 61.6569 7.5 60 7.5Z"
    fill="url(#paint1_linear_16837_33392)" />
  <path
    d="M54 37.5H24C23.1716 37.5 22.5 38.1716 22.5 39V45C22.5 45.8284 23.1716 46.5 24 46.5H54C54.8284 46.5 55.5 45.8284 55.5 45V39C55.5 38.1716 54.8284 37.5 54 37.5Z"
    fill="url(#paint2_linear_16837_33392)" />
  <path
    d="M54 52.5H24C23.6022 52.5 23.2206 52.342 22.9393 52.0607C22.658 51.7794 22.5 51.3978 22.5 51C22.5 50.6022 22.658 50.2206 22.9393 49.9393C23.2206 49.658 23.6022 49.5 24 49.5H54C54.3978 49.5 54.7794 49.658 55.0607 49.9393C55.342 50.2206 55.5 50.6022 55.5 51C55.5 51.3978 55.342 51.7794 55.0607 52.0607C54.7794 52.342 54.3978 52.5 54 52.5ZM54 58.5H24C23.6022 58.5 23.2206 58.342 22.9393 58.0607C22.658 57.7794 22.5 57.3978 22.5 57C22.5 56.6022 22.658 56.2206 22.9393 55.9393C23.2206 55.658 23.6022 55.5 24 55.5H54C54.3978 55.5 54.7794 55.658 55.0607 55.9393C55.342 56.2206 55.5 56.6022 55.5 57C55.5 57.3978 55.342 57.7794 55.0607 58.0607C54.7794 58.342 54.3978 58.5 54 58.5ZM54 64.5H24C23.6022 64.5 23.2206 64.342 22.9393 64.0607C22.658 63.7794 22.5 63.3978 22.5 63C22.5 62.6022 22.658 62.2206 22.9393 61.9393C23.2206 61.658 23.6022 61.5 24 61.5H54C54.3978 61.5 54.7794 61.658 55.0607 61.9393C55.342 62.2206 55.5 62.6022 55.5 63C55.5 63.3978 55.342 63.7794 55.0607 64.0607C54.7794 64.342 54.3978 64.5 54 64.5Z"
    fill="#B4CDE1" />
  <path fill-rule="evenodd" clip-rule="evenodd"
    d="M44.4404 20.4698C44.4404 15.9157 40.7478 12.2246 36.1938 12.2246C31.6398 12.2246 27.9473 15.9157 27.9473 20.4698C27.9473 22.784 28.9005 24.8738 30.4337 26.3708C30.421 30.2199 44.4404 31.4277 44.4404 20.4698Z"
    fill="#9FD4FE" />
  <path fill-rule="evenodd" clip-rule="evenodd"
    d="M36.1967 12.9515C40.3587 12.9515 43.7319 16.3264 43.7319 20.487C43.7319 22.6005 42.861 24.5116 41.4604 25.879C40.3381 26.9744 38.8744 27.7237 37.2463 27.9498C36.9032 27.9988 36.5524 28.0225 36.1967 28.0225C35.841 28.0225 35.4901 27.9988 35.1471 27.9498C33.5173 27.7237 32.0552 26.9744 30.9329 25.879C29.5308 24.5116 28.6614 22.6005 28.6614 20.487C28.6614 16.3264 32.0347 12.9515 36.1967 12.9515ZM36.1967 10.876C31.807 10.876 28.105 13.8194 26.9542 17.8408C26.714 18.6818 26.5859 19.5701 26.5859 20.487C26.5859 21.4054 26.714 22.2938 26.9542 23.1332V23.1347C28.105 27.1546 31.8071 30.098 36.1967 30.098C38.4729 30.098 40.5642 29.3076 42.2113 27.9845C43.7398 26.7562 44.8843 25.0696 45.4375 23.1347V23.1331C45.6794 22.2938 45.8074 21.4054 45.8074 20.4869C45.8074 19.5701 45.6794 18.6817 45.4375 17.8407C44.2884 13.8194 40.5863 10.876 36.1967 10.876Z"
    fill="#375E7D" />
  <path fill-rule="evenodd" clip-rule="evenodd"
    d="M32.2904 20.639L33.084 21.7993L33.1424 23.2867L33.1693 24.2162C33.1945 24.5308 33.4506 24.692 33.7446 24.632L34.6867 24.4011L36.1868 24.0328L37.6885 24.4011L38.6306 24.632C38.923 24.692 39.1791 24.5308 39.2059 24.2162L39.2123 23.9886L39.2328 23.2867L39.2897 21.7993L40.148 20.5489L40.676 19.768C40.8293 19.5198 40.7502 19.2369 40.4468 19.1136L39.5347 18.7927L38.0789 18.2821L37.1132 17.1234L36.5062 16.3962C36.4083 16.2887 36.2976 16.2334 36.1869 16.2334C36.0763 16.2334 35.9672 16.2887 35.8692 16.3962L35.2622 17.1234L34.2948 18.282L32.8406 18.7926L31.9269 19.1136C31.625 19.2369 31.5459 19.5198 31.6993 19.768L32.2904 20.639Z"
    fill="#FFD772" />
  <path fill-rule="evenodd" clip-rule="evenodd"
    d="M31.6993 19.768L32.2905 20.6389L33.084 21.7992L33.1424 23.2867L33.1693 24.2162C33.1946 24.5307 33.4507 24.692 33.7446 24.6319L34.6867 24.4011L36.1868 24.0328L37.6885 24.4011L38.6306 24.6319C38.923 24.692 39.1791 24.5307 39.2059 24.2162L39.2123 23.9886L39.2328 23.2867L39.2897 21.7992L40.148 20.5488L40.676 19.768C40.8293 19.5198 40.7502 19.2368 40.4468 19.1135L39.5347 18.7926L38.0789 18.282L37.1132 17.1234L36.5062 16.3962C36.4083 16.2887 36.2976 16.2334 36.1869 16.2334C36.0763 16.2334 35.9672 16.2887 35.8692 16.3962L35.2622 17.1234L34.2948 18.282L32.8406 18.7926L31.9269 19.1136C31.625 19.2368 31.5459 19.5198 31.6993 19.768Z"
    fill="#FFD772" />
  <path fill-rule="evenodd" clip-rule="evenodd"
    d="M36.5067 16.3962C36.4088 16.2887 36.2981 16.2334 36.1874 16.2334C36.17 16.2334 36.151 16.235 36.1337 16.2382C36.1525 16.3096 36.1704 16.3813 36.1874 16.4532C36.4277 17.4348 36.5636 18.5698 36.5636 19.7775C36.5636 21.4246 36.3092 22.9342 35.8887 24.1072L36.1874 24.0329L37.6891 24.4012L38.6312 24.632C38.9236 24.6921 39.1797 24.5308 39.2065 24.2163L39.2129 23.9887L39.2334 23.2868L39.2903 21.7993L40.1486 20.549L40.6766 19.7681C40.8299 19.5199 40.7508 19.2369 40.4474 19.1136L39.5353 18.7927L38.0795 18.2822L37.1137 17.1234L36.5067 16.3962Z"
    fill="#FBBA58" />
  <path
    d="M44.9263 31.2546C44.8705 31.2547 44.8152 31.2436 44.7637 31.2219C44.7123 31.2002 44.6657 31.1684 44.6268 31.1283L41.8455 28.2756C41.7706 28.1957 41.73 28.0896 41.7325 27.9801C41.735 27.8707 41.7803 27.7665 41.8587 27.6901C41.9371 27.6136 42.0424 27.571 42.1519 27.5713C42.2614 27.5716 42.3664 27.6148 42.4444 27.6917L45.2257 30.5444C45.2832 30.6033 45.322 30.6779 45.3373 30.7587C45.3525 30.8395 45.3436 30.9231 45.3117 30.9989C45.2797 31.0747 45.2261 31.1394 45.1576 31.1849C45.089 31.2304 45.0086 31.2546 44.9263 31.2546Z"
    fill="#375E7D" />
  <path fill-rule="evenodd" clip-rule="evenodd"
    d="M41.4524 20.2432C41.4524 21.5221 41.1331 22.7266 40.572 23.7826C41.0952 24.3343 41.4287 25.0709 41.4619 25.8786C42.8624 24.5113 43.7334 22.6001 43.7334 20.4867C43.7334 16.3261 40.3602 12.9512 36.1981 12.9512C36.0827 12.9512 35.9674 12.9543 35.8535 12.9591C39.0766 13.8143 41.4524 16.7513 41.4524 20.2432Z"
    fill="#85BEEF" />
  <path fill-rule="evenodd" clip-rule="evenodd"
    d="M43.7328 20.487C43.7328 22.6005 42.8618 24.5116 41.4613 25.879C41.3326 26.0051 41.1992 26.1264 41.0614 26.2426C40.1446 27.3839 38.9717 28.3118 37.6312 28.9378C36.5026 29.4658 35.2523 29.7803 33.9355 29.8309C34.6611 30.0063 35.4183 30.098 36.1975 30.098C38.4737 30.098 40.565 29.3076 42.2122 27.9845C43.7407 26.7563 44.8852 25.0696 45.4384 23.1347V23.1332C45.6802 22.2938 45.8082 21.4054 45.8082 20.487C45.8082 19.5702 45.6802 18.6817 45.4384 17.8408C44.2892 13.8193 40.5871 10.876 36.1975 10.876C36.0742 10.876 35.951 10.8791 35.8276 10.8839C37.4811 11.2822 38.9685 12.109 40.1651 13.2392C40.9492 13.9804 41.6036 14.8475 42.1015 15.8047C43.1226 17.09 43.7328 18.7182 43.7328 20.487Z"
    fill="#2B4D66" />
  <path fill-rule="evenodd" clip-rule="evenodd"
    d="M43.9831 29.8821C43.275 30.5492 43.2417 31.6763 43.9104 32.3844L44.8747 33.4072L46.762 32.8271L47.4497 30.9776L46.4854 29.9548C46.4019 29.8652 46.3086 29.7851 46.2073 29.7161C45.5354 29.2498 44.6012 29.2988 43.9831 29.8821ZM48.6478 32.2485L46.762 32.8271L46.0728 34.6766L46.2072 34.8204L47.0371 35.7009C47.7057 36.4091 48.8312 36.4407 49.5394 35.7736C50.2475 35.1049 50.2807 33.9794 49.6121 33.2713L48.6478 32.2485Z"
    fill="#F5A96C" />
  <path fill-rule="evenodd" clip-rule="evenodd"
    d="M46.4491 31.9229L47.4513 30.9776L46.487 29.9548C46.4035 29.8652 46.3102 29.7851 46.2089 29.7161C45.537 29.2498 44.6028 29.2988 43.9848 29.8821C43.8123 30.0439 43.6747 30.2391 43.5801 30.4559C44.1159 30.2583 44.7277 30.3279 45.2066 30.6598C45.3076 30.7298 45.4009 30.8103 45.4848 30.9001L46.4491 31.9229ZM48.6495 32.2485L47.6473 33.1923L48.6131 34.2166C49.1126 34.7462 49.2201 35.5128 48.9435 36.1435C49.1658 36.0624 49.3692 35.9365 49.541 35.7737C50.2491 35.105 50.2823 33.9795 49.6136 33.2713L48.6495 32.2485Z"
    fill="#EA9A58" />
  <path fill-rule="evenodd" clip-rule="evenodd"
    d="M47.448 30.9775L44.873 33.4072L46.0712 34.6765L48.6462 32.2485L47.448 30.9775Z" fill="#EB5468" />
  <path fill-rule="evenodd" clip-rule="evenodd"
    d="M47.4495 30.9775L46.4473 31.9228L47.6455 33.1922L48.6476 32.2485L47.4495 30.9775Z" fill="#E5384F" />
  <defs>
    <linearGradient id="paint0_linear_16837_33392" x1="48.675" y1="48.675" x2="3.39" y2="3.39"
      gradientUnits="userSpaceOnUse">
      <stop stop-color="#54A5FF" />
      <stop offset="0.98" stop-color="#89D2FE" />
      <stop offset="1" stop-color="#8AD3FE" />
    </linearGradient>
    <linearGradient id="paint1_linear_16837_33392" x1="39" y1="70.5" x2="39" y2="7.5" gradientUnits="userSpaceOnUse">
      <stop stop-color="#D3E6F5" />
      <stop offset="1" stop-color="#F0F7FC" />
    </linearGradient>
    <linearGradient id="paint2_linear_16837_33392" x1="39" y1="46.5" x2="39" y2="37.5" gradientUnits="userSpaceOnUse">
      <stop stop-color="#54A5FF" />
      <stop offset="1" stop-color="#8AD3FE" />
    </linearGradient>
  </defs>
</svg>
