<svg width="48" height="48" viewBox="0 0 48 48" fill="none" xmlns="http://www.w3.org/2000/svg">
<g clip-path="url(#clip0_3025_14963)">
<path d="M41.7488 9.10455e-09H10.9927C10.9293 -1.23066e-05 10.8665 0.01247 10.8079 0.036734C10.7493 0.0609979 10.696 0.0965681 10.6512 0.141413C10.6063 0.186257 10.5708 0.239497 10.5465 0.298091C10.5222 0.356686 10.5098 0.419487 10.5098 0.482906V41.0642L10.6379 41.1579H17.1747C17.406 41.1579 17.6278 41.2498 17.7914 41.4134C17.9549 41.5769 18.0468 41.7987 18.0468 42.03V44.0479H18.8763C19.1076 44.0479 19.3294 44.1398 19.4929 44.3033C19.6565 44.4668 19.7484 44.6887 19.7484 44.9199V47.9062L19.8421 48H41.7488C41.8768 48 41.9996 47.9491 42.0902 47.8586C42.1807 47.768 42.2316 47.6452 42.2316 47.5172V0.482813C42.2316 0.354763 42.1807 0.231957 42.0902 0.141413C41.9996 0.0508676 41.8768 9.10455e-09 41.7488 9.10455e-09Z" fill="#FFF3DE"/>
<path d="M13.6769 13.8715C13.7058 13.8715 13.7344 13.8727 13.7631 13.8737V0.482906C13.7631 0.419487 13.7755 0.356686 13.7998 0.298091C13.8241 0.239497 13.8596 0.186257 13.9045 0.141412C13.9493 0.0965681 14.0026 0.0609979 14.0612 0.036734C14.1198 0.01247 14.1826 -1.23066e-05 14.246 9.10455e-09H10.9927C10.9293 -1.23066e-05 10.8665 0.01247 10.8079 0.036734C10.7493 0.0609979 10.696 0.0965681 10.6512 0.141412C10.6063 0.186257 10.5708 0.239497 10.5465 0.298091C10.5222 0.356686 10.5098 0.419487 10.5098 0.482906V13.8715H13.6769ZM13.6769 37.1009H10.5098V41.0642H13.7631V37.0987C13.7344 37.0998 13.7058 37.1009 13.6769 37.1009Z" fill="#FFE5C2"/>
<path d="M14.5684 23.835H19.2264V27.1377H14.5684V23.835ZM22.1214 23.835H28.6941V27.1377H22.1214V23.835Z" fill="#883F2E"/>
<path d="M14.5684 25.5449H19.2264V27.1373H14.5684V25.5449ZM22.1214 25.5449H28.6941V27.1373H22.1214V25.5449Z" fill="#6D3326"/>
<path d="M46.5446 25.4865C46.5446 26.8241 45.4602 27.9085 44.1225 27.9085H29.1501C29.0041 27.9085 28.8641 27.8505 28.7608 27.7473C28.6576 27.644 28.5996 27.504 28.5996 27.358V23.615C28.5996 23.469 28.6576 23.3289 28.7608 23.2257C28.8641 23.1225 29.0041 23.0645 29.1501 23.0645H44.1225C45.4602 23.0645 46.5446 24.1489 46.5446 25.4865Z" fill="#CA6E59"/>
<path d="M31.8913 25.8353C31.819 25.8353 31.7474 25.8211 31.6806 25.7934C31.6138 25.7658 31.5531 25.7252 31.502 25.6741C31.4509 25.623 31.4104 25.5623 31.3827 25.4955C31.3551 25.4287 31.3408 25.3571 31.3409 25.2848V23.0645H29.1501C29.0041 23.0645 28.8641 23.1225 28.7608 23.2257C28.6576 23.3289 28.5996 23.469 28.5996 23.615V27.3581C28.5996 27.5041 28.6576 27.6441 28.7608 27.7474C28.8641 27.8506 29.0041 27.9086 29.1501 27.9086H44.1225C45.3417 27.9086 46.35 27.0077 46.5192 25.8353H31.8913Z" fill="#BB5D4C"/>
<path d="M22.2135 23.5474V27.4256C22.2135 27.489 22.201 27.5518 22.1767 27.6104C22.1525 27.669 22.1169 27.7223 22.072 27.7671C22.0272 27.8119 21.974 27.8475 21.9154 27.8718C21.8568 27.896 21.794 27.9085 21.7305 27.9085H19.6138C19.5503 27.9085 19.4875 27.896 19.429 27.8718C19.3704 27.8475 19.3171 27.8119 19.2723 27.7671C19.2274 27.7223 19.1919 27.669 19.1676 27.6104C19.1433 27.5518 19.1308 27.489 19.1309 27.4256V23.5474C19.1308 23.4839 19.1433 23.4211 19.1676 23.3625C19.1919 23.304 19.2274 23.2507 19.2723 23.2059C19.3171 23.161 19.3704 23.1255 19.429 23.1012C19.4875 23.0769 19.5503 23.0644 19.6138 23.0645H21.7305C21.794 23.0644 21.8568 23.0769 21.9154 23.1012C21.974 23.1255 22.0272 23.161 22.072 23.2059C22.1169 23.2507 22.1525 23.304 22.1767 23.3625C22.201 23.4211 22.2135 23.4839 22.2135 23.5474Z" fill="#CA6E59"/>
<path d="M20.531 27.4256V23.5474C20.531 23.4839 20.5435 23.4211 20.5677 23.3625C20.592 23.304 20.6276 23.2507 20.6724 23.2059C20.7173 23.161 20.7705 23.1255 20.8291 23.1012C20.8877 23.0769 20.9505 23.0644 21.0139 23.0645H19.6138C19.5503 23.0644 19.4875 23.0769 19.429 23.1012C19.3704 23.1255 19.3171 23.161 19.2723 23.2059C19.2274 23.2507 19.1919 23.304 19.1676 23.3625C19.1433 23.4211 19.1308 23.4839 19.1309 23.5474V27.4256C19.1308 27.489 19.1433 27.5518 19.1676 27.6104C19.1919 27.669 19.2274 27.7223 19.2723 27.7671C19.3171 27.8119 19.3704 27.8475 19.429 27.8718C19.4875 27.896 19.5503 27.9085 19.6138 27.9085H21.0139C20.8858 27.9085 20.763 27.8576 20.6725 27.7671C20.5819 27.6765 20.531 27.5537 20.531 27.4256Z" fill="#BB5D4C"/>
<path d="M13.6953 29.3562H7.60394C7.55468 29.3559 7.50553 29.3514 7.45703 29.3428V32.4677C7.512 32.4635 7.56709 32.4613 7.62222 32.4611H13.6772C13.7328 32.4611 13.7878 32.4638 13.8423 32.4677V29.3428C13.7938 29.3514 13.7446 29.3559 13.6953 29.3562Z" fill="#883F2E"/>
<path d="M7.60394 29.3562C7.55468 29.3559 7.50553 29.3514 7.45703 29.3428V32.4677C7.512 32.4635 7.56709 32.4613 7.62222 32.4611H9.88909V29.3562H7.60394Z" fill="#6D3326"/>
<path d="M7.60403 21.6164H13.6955C13.7457 21.6164 13.7946 21.6216 13.8424 21.6299V18.5049C13.7878 18.5088 13.7329 18.5115 13.6773 18.5115H7.62222C7.56663 18.5115 7.51169 18.5088 7.45703 18.5049V21.6299C7.50556 21.6212 7.55474 21.6168 7.60403 21.6164Z" fill="#883F2E"/>
<path d="M7.60394 21.6165H9.88909V18.5115H7.62222C7.56663 18.5115 7.51169 18.5088 7.45703 18.5049V21.6299C7.50554 21.6213 7.55468 21.6169 7.60394 21.6165Z" fill="#6D3326"/>
<path d="M14.6617 22.4883V28.4833C14.6617 29.0167 14.2293 29.4491 13.6959 29.4491H7.60448C7.07105 29.4491 6.63867 29.0167 6.63867 28.4833V22.4883C6.63867 21.9548 7.07105 21.5225 7.60448 21.5225H13.6959C14.2292 21.5225 14.6617 21.9548 14.6617 22.4883Z" fill="#CA6E59"/>
<path d="M9.9007 28.4833V22.4883C9.9007 21.9548 10.3331 21.5225 10.8665 21.5225H7.60448C7.07105 21.5225 6.63867 21.9548 6.63867 22.4883V28.4833C6.63867 29.0167 7.07105 29.4491 7.60448 29.4491H10.8665C10.3331 29.449 9.9007 29.0166 9.9007 28.4833Z" fill="#BB5D4C"/>
<path d="M18.1406 44.0481V42.0303C18.1406 41.4968 17.7082 41.0645 17.1748 41.0645H4.12402C3.59058 41.0645 3.1582 41.4968 3.1582 42.0303V44.0481H18.1406Z" fill="#CA6E59"/>
<path d="M6.42792 44.0481C6.42483 44.0165 6.42305 43.9844 6.42305 43.9519V42.0303C6.42305 41.4968 6.85542 41.0645 7.38886 41.0645H4.12402C3.59058 41.0645 3.1582 41.4968 3.1582 42.0303V44.0481H6.42792Z" fill="#BB5D4C"/>
<path d="M19.8423 48H1.93994C1.87652 48 1.81372 47.9875 1.75512 47.9632C1.69653 47.939 1.64329 47.9034 1.59844 47.8586C1.5536 47.8137 1.51803 47.7605 1.49377 47.7019C1.4695 47.6433 1.45702 47.5805 1.45703 47.5171V44.9199C1.45703 44.3865 1.88941 43.9541 2.42284 43.9541H18.8765C19.41 43.9541 19.8423 44.3865 19.8423 44.9199V48Z" fill="#883F2E"/>
<path d="M4.68494 47.5171V44.9199C4.68494 44.3865 5.11731 43.9541 5.65075 43.9541H2.42284C1.88941 43.9541 1.45703 44.3865 1.45703 44.9199V47.5171C1.45702 47.5805 1.4695 47.6433 1.49377 47.7019C1.51803 47.7605 1.5536 47.8137 1.59844 47.8586C1.64329 47.9034 1.69653 47.939 1.75512 47.9632C1.81372 47.9875 1.87652 48 1.93994 48H5.16784C5.10442 48 5.04162 47.9875 4.98303 47.9632C4.92443 47.939 4.87119 47.9034 4.82635 47.8586C4.78151 47.8137 4.74594 47.7605 4.72167 47.7019C4.69741 47.6433 4.68493 47.5805 4.68494 47.5171Z" fill="#6D3326"/>
<path d="M16.0449 34.7342C16.0449 36.0414 14.9851 37.1012 13.6779 37.1012H7.62286C6.31561 37.1012 5.25586 36.0414 5.25586 34.7342C5.25586 33.4269 6.31561 32.3672 7.62286 32.3672H13.6779C14.9851 32.3673 16.0449 33.4269 16.0449 34.7342Z" fill="#CA6E59"/>
<path d="M8.48011 34.7342C8.48011 33.4269 9.53986 32.3672 10.8471 32.3672H7.62286C6.31561 32.3672 5.25586 33.4269 5.25586 34.7342C5.25586 36.0414 6.31561 37.1012 7.62286 37.1012H10.8471C9.53977 37.1012 8.48011 36.0414 8.48011 34.7342Z" fill="#BB5D4C"/>
<path d="M16.0449 16.2381C16.0449 17.5453 14.9851 18.6051 13.6779 18.6051H7.62286C6.31561 18.6051 5.25586 17.5453 5.25586 16.2381C5.25586 14.9308 6.31561 13.8711 7.62286 13.8711H13.6779C14.9851 13.8711 16.0449 14.9308 16.0449 16.2381Z" fill="#CA6E59"/>
<path d="M8.48011 16.2381C8.48011 14.9308 9.53986 13.8711 10.8471 13.8711H7.62286C6.31561 13.8711 5.25586 14.9308 5.25586 16.2381C5.25586 17.5453 6.31561 18.6051 7.62286 18.6051H10.8471C9.53977 18.6051 8.48011 17.5453 8.48011 16.2381Z" fill="#BB5D4C"/>
<path d="M26.3707 18.0548C30.1134 18.0548 33.1476 15.0207 33.1476 11.2779C33.1476 7.5351 30.1134 4.50098 26.3707 4.50098C22.6279 4.50098 19.5938 7.5351 19.5938 11.2779C19.5938 15.0207 22.6279 18.0548 26.3707 18.0548Z" fill="#4FC123"/>
<path d="M22.8415 11.2779C22.8415 8.09507 25.0362 5.42601 27.9946 4.69823C27.4632 4.56724 26.9179 4.50101 26.3707 4.50098C22.6279 4.50098 19.5938 7.5351 19.5938 11.2779C19.5938 15.0207 22.6279 18.0548 26.3707 18.0548C26.9179 18.0548 27.4632 17.9885 27.9946 17.8575C25.0362 17.1298 22.8415 14.4608 22.8415 11.2779Z" fill="#47A920"/>
<path d="M26.3706 18.7579C22.2461 18.7579 18.8906 15.4024 18.8906 11.2779C18.8906 7.15335 22.2461 3.79785 26.3706 3.79785C30.4951 3.79785 33.8506 7.15335 33.8506 11.2779C33.8506 15.4024 30.4951 18.7579 26.3706 18.7579ZM26.3706 5.2041C23.0214 5.2041 20.2969 7.92876 20.2969 11.2779C20.2969 14.627 23.0215 17.3517 26.3706 17.3517C29.7196 17.3517 32.4443 14.627 32.4443 11.2779C32.4443 7.92876 29.7197 5.2041 26.3706 5.2041Z" fill="#68CA44"/>
<path d="M26.0209 13.9262C25.9285 13.9263 25.837 13.9082 25.7517 13.8729C25.6663 13.8375 25.5888 13.7856 25.5236 13.7202L23.2955 11.4922C23.1646 11.3601 23.0914 11.1816 23.0918 10.9956C23.0922 10.8097 23.1663 10.6315 23.2978 10.5C23.4293 10.3685 23.6075 10.2945 23.7934 10.2941C23.9794 10.2937 24.1579 10.367 24.2899 10.4979L26.0208 12.2287L28.9771 9.27236C29.0424 9.20707 29.1199 9.15527 29.2052 9.11993C29.2905 9.08459 29.3819 9.06641 29.4743 9.06641C29.5666 9.06641 29.6581 9.08459 29.7434 9.11993C29.8287 9.15527 29.9062 9.20707 29.9715 9.27236C30.1033 9.40422 30.1774 9.58305 30.1774 9.76952C30.1774 9.95599 30.1033 10.1348 29.9715 10.2667L26.5179 13.7201C26.4528 13.7856 26.3753 13.8375 26.29 13.8728C26.2047 13.9082 26.1132 13.9263 26.0209 13.9262Z" fill="white"/>
<path d="M36.8563 32.291H23.5352C23.1467 32.291 22.832 31.9762 22.832 31.5879C22.832 31.1996 23.1467 30.8848 23.5352 30.8848H36.8563C37.2447 30.8848 37.5594 31.1996 37.5594 31.5879C37.5594 31.9762 37.2447 32.291 36.8563 32.291ZM36.8563 35.814H29.9885C29.6001 35.814 29.2854 35.4991 29.2854 35.1108C29.2854 34.7225 29.6001 34.4077 29.9885 34.4077H36.8563C37.2447 34.4077 37.5594 34.7225 37.5594 35.1108C37.5594 35.4991 37.2447 35.814 36.8563 35.814ZM27.4775 35.814H23.5352C23.1467 35.814 22.832 35.4991 22.832 35.1108C22.832 34.7225 23.1467 34.4077 23.5352 34.4077H27.4775C27.664 34.4077 27.8429 34.4818 27.9747 34.6136C28.1066 34.7455 28.1807 34.9243 28.1807 35.1108C28.1807 35.2973 28.1066 35.4761 27.9747 35.608C27.8429 35.7399 27.664 35.814 27.4775 35.814ZM36.8563 39.3369H23.5352C23.1467 39.3369 22.832 39.0221 22.832 38.6338C22.832 38.2455 23.1467 37.9306 23.5352 37.9306H36.8563C37.2447 37.9306 37.5594 38.2455 37.5594 38.6338C37.5594 39.0221 37.2447 39.3369 36.8563 39.3369ZM36.8563 42.8598H33.3689C32.9805 42.8598 32.6658 42.545 32.6658 42.1567C32.6658 41.7684 32.9805 41.4536 33.3689 41.4536H36.8563C37.2447 41.4536 37.5594 41.7684 37.5594 42.1567C37.5594 42.545 37.2447 42.8598 36.8563 42.8598ZM31.1475 42.8598H23.5352C23.1467 42.8598 22.832 42.545 22.832 42.1567C22.832 41.7684 23.1467 41.4536 23.5352 41.4536H31.1475C31.5359 41.4536 31.8506 41.7684 31.8506 42.1567C31.8506 42.545 31.5359 42.8598 31.1475 42.8598Z" fill="#F6A96C"/>
</g>
<defs>
<clipPath id="clip0_3025_14963">
<rect width="48" height="48" fill="white"/>
</clipPath>
</defs>
</svg>
