<svg width="48"
    height="48"
    viewBox="0 0 48 48"
    fill="none"
    xmlns="http://www.w3.org/2000/svg">
    <path d="M3.20078 44C2.56426 44 1.95381 43.7471 1.50372 43.2971C1.05364 42.847 0.800781 42.2365 0.800781 41.6V13.6C0.802047 13.176 0.971025 12.7698 1.27081 12.47C1.57059 12.1702 1.97682 12.0013 2.40078 12H9.60078V43.2L4.00078 44H3.20078Z"
        fill="#30649D"/>
    <path d="M8.80078 19.1998V2.3998C8.80205 1.97585 8.97103 1.56962 9.27081 1.26983C9.57059 0.970048 9.97682 0.801071 10.4008 0.799805H36.0008C36.4247 0.801071 36.831 0.970048 37.1308 1.26983C37.4305 1.56962 37.5995 1.97585 37.6008 2.3998V19.1998H8.80078Z"
        fill="#D4E6E7"/>
    <path d="M42.4012 27.9994V19.9994C42.3999 19.5755 42.2309 19.1692 41.9311 18.8694C41.6314 18.5697 41.2251 18.4007 40.8012 18.3994H7.20117C6.77722 18.4007 6.37098 18.5697 6.0712 18.8694C5.77142 19.1692 5.60244 19.5755 5.60117 19.9994V41.5994C5.60117 42.2359 5.34832 42.8464 4.89823 43.2965C4.44814 43.7466 3.83769 43.9994 3.20117 43.9994H42.4012V27.9994Z"
        fill="#3B7AC8"/>
    <path d="M16.696 4H33.6C33.8122 4 34.0157 4.08429 34.1657 4.23431C34.3157 4.38434 34.4 4.58783 34.4 4.8V18.4H12V7.568L16.696 4Z"
        fill="#30649D"/>
    <path d="M16.8 4.8C16.8009 5.36201 16.6535 5.91431 16.3728 6.40117C16.092 6.88803 15.6878 7.29224 15.201 7.57299C14.7141 7.85374 14.1618 8.00112 13.5998 8.00024C13.0378 7.99937 12.486 7.85027 12 7.568V4.8C12 4.58783 12.0843 4.38434 12.2343 4.23431C12.3843 4.08429 12.5878 4 12.8 4H16.696C16.7674 4.26058 16.8024 4.52981 16.8 4.8Z"
        fill="#E1C53A"/>
    <path d="M34.4016 15.9514V18.3994H21.6016V15.6794L27.3776 10.6314C27.55 10.481 27.7718 10.3995 28.0006 10.4024C28.2294 10.4054 28.4491 10.4926 28.6176 10.6474L34.4016 15.9514Z"
        fill="#6AC579"/>
    <path d="M27.472 18.3994H12V15.6794L17.776 10.6314C17.9484 10.481 18.1703 10.3995 18.3991 10.4024C18.6278 10.4054 18.8475 10.4926 19.016 10.6474L27.472 18.3994Z"
        fill="#79DE89"/>
</svg>
