<svg width="294" height="293" viewBox="0 0 294 293" fill="none" xmlns="http://www.w3.org/2000/svg">
<g clip-path="url(#clip0_3564_28865)">
<path d="M293.5 224.086H0.5V224.233H293.5V224.086Z" fill="#EBEBEB"/>
<path d="M52.9476 228.077H31.2422V228.224H52.9476V228.077Z" fill="#EBEBEB"/>
<path d="M141.139 231.247H99.5332V231.394H141.139V231.247Z" fill="#EBEBEB"/>
<path d="M85.8625 228.147H56.123V228.294H85.8625V228.147Z" fill="#EBEBEB"/>
<path d="M267.394 232.531H238.873V232.677H267.394V232.531Z" fill="#EBEBEB"/>
<path d="M236.266 232.531H217.531V232.677H236.266V232.531Z" fill="#EBEBEB"/>
<path d="M199.283 230.058H162.945V230.204H199.283V230.058Z" fill="#EBEBEB"/>
<path d="M139.382 197.951H26.2308C25.3444 197.949 24.4948 197.596 23.8686 196.969C23.2424 196.341 22.8906 195.491 22.8906 194.605V35.5467C22.8983 34.6654 23.2535 33.8227 23.8789 33.2017C24.5043 32.5807 25.3495 32.2315 26.2308 32.23H139.382C140.269 32.23 141.12 32.5825 141.748 33.21C142.375 33.8375 142.728 34.6886 142.728 35.576V194.605C142.728 195.492 142.375 196.343 141.748 196.971C141.12 197.598 140.269 197.951 139.382 197.951ZM26.2308 32.3472C25.3833 32.3487 24.5709 32.6865 23.9722 33.2864C23.3734 33.8862 23.0371 34.6992 23.0371 35.5467V194.605C23.0371 195.452 23.3734 196.265 23.9722 196.865C24.5709 197.465 25.3833 197.803 26.2308 197.804H139.382C140.23 197.803 141.043 197.465 141.642 196.865C142.242 196.266 142.58 195.453 142.581 194.605V35.5467C142.58 34.6986 142.242 33.8857 141.642 33.286C141.043 32.6863 140.23 32.3487 139.382 32.3472H26.2308Z" fill="#EBEBEB"/>
<path d="M266.139 197.951H152.983C152.096 197.949 151.246 197.596 150.618 196.969C149.991 196.342 149.638 195.492 149.637 194.605V35.5467C149.646 34.6649 150.002 33.8222 150.629 33.2013C151.255 32.5805 152.101 32.2315 152.983 32.23H266.139C267.02 32.233 267.863 32.5829 268.488 33.2038C269.112 33.8246 269.466 34.6664 269.474 35.5467V194.605C269.474 195.49 269.123 196.339 268.498 196.967C267.873 197.594 267.025 197.948 266.139 197.951ZM152.983 32.3472C152.135 32.3487 151.322 32.6863 150.722 33.286C150.122 33.8857 149.785 34.6986 149.783 35.5467V194.605C149.785 195.453 150.122 196.266 150.722 196.865C151.322 197.465 152.135 197.803 152.983 197.804H266.139C266.987 197.803 267.8 197.465 268.4 196.865C269 196.266 269.337 195.453 269.339 194.605V35.5467C269.337 34.6986 269 33.8857 268.4 33.286C267.8 32.6863 266.987 32.3487 266.139 32.3472H152.983Z" fill="#EBEBEB"/>
<path d="M254.555 224.087H106.52C106.303 224.087 106.088 224.045 105.888 223.963C105.687 223.881 105.505 223.759 105.352 223.606C105.198 223.453 105.076 223.272 104.993 223.071C104.91 222.871 104.867 222.657 104.867 222.44V222.282H210.031L256.202 222.44C256.202 222.877 256.028 223.296 255.719 223.604C255.411 223.913 254.992 224.087 254.555 224.087Z" fill="#E0E0E0"/>
<path d="M116.083 141.425H212.093C215.067 141.425 217.918 142.606 220.02 144.709C222.123 146.811 223.304 149.662 223.304 152.635V194.365H104.867V152.635C104.867 149.662 106.048 146.811 108.151 144.709C110.253 142.606 113.104 141.425 116.077 141.425H116.083Z" fill="#E0E0E0"/>
<path d="M123.771 141.425H220.836C223.666 141.425 226.38 142.55 228.381 144.551C230.382 146.552 231.507 149.266 231.507 152.096V194.37H113.1V152.096C113.1 149.266 114.224 146.552 116.225 144.551C118.226 142.55 120.941 141.425 123.771 141.425Z" fill="#F5F5F5"/>
<path d="M149.232 222.282H103.524C101.392 222.282 99.3471 221.435 97.8393 219.927C96.3316 218.419 95.4845 216.374 95.4845 214.242V173.175C95.4845 171.043 96.3316 168.998 97.8393 167.49C99.3471 165.982 101.392 165.135 103.524 165.135H149.232V222.282Z" fill="#F0F0F0"/>
<path d="M148.853 222.282H149.609C154.049 222.282 157.648 218.682 157.648 214.242V173.175C157.648 168.735 154.049 165.135 149.609 165.135H148.853C144.412 165.135 140.813 168.735 140.813 173.175V214.242C140.813 218.682 144.412 222.282 148.853 222.282Z" fill="#F5F5F5"/>
<path d="M235.522 54.2168H194.133V115.079H235.522V54.2168Z" fill="#E0E0E0"/>
<path d="M238.012 54.2168H195.264V115.079H238.012V54.2168Z" fill="#F5F5F5"/>
<path d="M198.844 59.0102V110.279H234.432V59.0102H198.844Z" fill="white"/>
<path d="M212.211 87.1206V91.0233C213.374 91.0233 214.525 90.7943 215.599 90.3493C216.674 89.9044 217.65 89.2521 218.472 88.4299C219.294 87.6077 219.946 86.6316 220.391 85.5573C220.836 84.4831 221.065 83.3317 221.065 82.1689V78.2661C219.902 78.2653 218.751 78.4938 217.676 78.9386C216.601 79.3833 215.625 80.0354 214.803 80.8578C213.98 81.6802 213.328 82.6566 212.883 83.7312C212.439 84.8058 212.21 85.9576 212.211 87.1206Z" fill="#F5F5F5"/>
<path d="M212.211 73.959V77.8617C214.559 77.8602 216.81 76.9268 218.47 75.2666C220.13 73.6064 221.064 71.3551 221.065 69.0073V65.0986C219.902 65.0986 218.75 65.3279 217.676 65.7732C216.601 66.2185 215.625 66.8713 214.802 67.6941C213.98 68.517 213.328 69.4938 212.883 70.5687C212.439 71.6437 212.21 72.7957 212.211 73.959Z" fill="#F5F5F5"/>
<path d="M212.211 100.288V104.191C214.56 104.189 216.812 103.255 218.472 101.594C220.133 99.9322 221.065 97.6794 221.065 95.3305V91.416C219.901 91.416 218.748 91.6456 217.673 92.0917C216.597 92.5378 215.621 93.1916 214.798 94.0156C213.976 94.8397 213.324 95.8179 212.88 96.8942C212.436 97.9705 212.209 99.1238 212.211 100.288Z" fill="#F5F5F5"/>
<path d="M74.7452 95.2893H64.625L72.5477 65.6729H82.6679L74.7452 95.2893Z" fill="white"/>
<path d="M84.1569 95.2893H78.3027L86.2254 65.6729H92.0796L84.1569 95.2893Z" fill="white"/>
<path d="M135.098 95.2893H129.244L137.167 65.6729H143.021L135.098 95.2893Z" fill="white"/>
<path d="M91.5176 174.973H58.7543L54.6992 130.461H87.4683L91.5176 174.973Z" fill="#E6E6E6"/>
<path d="M93.2168 174.973H60.4477L56.3984 130.461H89.1676L93.2168 174.973Z" fill="#F0F0F0"/>
<path d="M64.9242 170.046L61.7715 135.39H84.6841L87.8368 170.046H64.9242Z" fill="white"/>
<path d="M116.077 174.974H111.664V224.08H116.077V174.974Z" fill="#E6E6E6"/>
<path d="M117.465 174.974H114.4V224.08H117.465V174.974Z" fill="#F5F5F5"/>
<path d="M71.8505 180.394H118.414V174.974H71.8505V180.394Z" fill="#F5F5F5"/>
<path d="M69.8774 180.394H65.4648V224.086H69.8774V180.394Z" fill="#E6E6E6"/>
<path d="M71.2718 180.394H68.207V224.086H71.2718V180.394Z" fill="#F5F5F5"/>
<path d="M41.9595 180.394H37.5469V224.086H41.9595V180.394Z" fill="#E6E6E6"/>
<path d="M43.3538 180.394H40.2891V224.086H43.3538V180.394Z" fill="#F5F5F5"/>
<path d="M88.1606 180.394H83.748V224.086H88.1606V180.394Z" fill="#E6E6E6"/>
<path d="M89.5492 180.394H86.4844V224.086H89.5492V180.394Z" fill="#F5F5F5"/>
<path d="M71.8513 174.974H37.5469V180.394H71.8513V174.974Z" fill="#E6E6E6"/>
<path d="M157.97 85.2981C125.945 118.618 52.9884 88.0699 51.0018 153.174C49.0915 215.56 130.446 212.437 170.956 199.123C217.924 183.682 255.164 140.781 240.45 89.7751C234.766 70.0738 222.02 50.9409 200.256 47.63C165.477 42.3326 174.941 67.6302 157.97 85.2981Z" fill="#407BFF"/>
<path opacity="0.9" d="M157.97 85.2981C125.945 118.618 52.9884 88.0699 51.0018 153.174C49.0915 215.56 130.446 212.437 170.956 199.123C217.924 183.682 255.164 140.781 240.45 89.7751C234.766 70.0738 222.02 50.9409 200.256 47.63C165.477 42.3326 174.941 67.6302 157.97 85.2981Z" fill="white"/>
<path d="M147 250.55C209.751 250.55 260.62 247.58 260.62 243.917C260.62 240.253 209.751 237.283 147 237.283C84.2501 237.283 33.3809 240.253 33.3809 243.917C33.3809 247.58 84.2501 250.55 147 250.55Z" fill="#F5F5F5"/>
<path d="M192.92 79.696C190.682 78.2954 184.253 79.696 185.302 86.728C186.351 93.76 178.089 91.961 179.894 100.142C181.698 108.322 196.343 120.476 205.361 112.225C214.38 103.974 206.779 100.335 206.949 90.5428C207.066 84.7238 204.429 74.3048 192.92 79.696Z" fill="#263238"/>
<path d="M206.187 111.873C206.145 111.873 206.105 111.856 206.076 111.826C206.061 111.813 206.05 111.796 206.042 111.778C206.035 111.76 206.031 111.741 206.031 111.721C206.031 111.701 206.035 111.682 206.042 111.664C206.05 111.646 206.061 111.629 206.076 111.616C211.631 106.095 210.347 102.732 208.724 98.4774C207.822 96.1334 206.808 93.4612 206.72 89.998C206.632 86.2593 205.267 81.1552 201.71 79.0515C199.19 77.5631 195.955 77.8209 192.099 79.8192C192.064 79.8359 192.024 79.8386 191.987 79.8266C191.95 79.8146 191.919 79.7889 191.9 79.7547C191.89 79.7372 191.884 79.7178 191.882 79.6977C191.88 79.6776 191.882 79.6573 191.888 79.6381C191.894 79.6188 191.904 79.601 191.917 79.5858C191.93 79.5706 191.946 79.5582 191.965 79.5496C195.92 77.4986 199.249 77.2466 201.868 78.7937C205.525 80.9619 206.931 86.1773 207.025 89.9863C207.107 93.4026 208.115 96.0396 209.006 98.3661C210.664 102.726 211.982 106.172 206.286 111.844C206.258 111.865 206.222 111.875 206.187 111.873Z" fill="#263238"/>
<path d="M207.487 111.071C207.487 111.071 207.581 111.205 207.645 111.293L207.879 111.61C208.051 111.828 208.233 112.045 208.424 112.26C208.817 112.703 209.236 113.121 209.678 113.514C210.586 114.345 211.566 115.092 212.608 115.747C213.666 116.42 214.766 117.025 215.902 117.558C216.488 117.845 217.074 118.073 217.66 118.331C217.771 118.384 217.66 118.331 217.584 118.378C217.507 118.425 217.443 118.466 217.507 118.431C217.795 118.186 218.023 117.879 218.175 117.534C218.435 117.018 218.656 116.483 218.838 115.934C219.231 114.71 219.55 113.464 219.793 112.202C220.056 110.912 220.262 109.594 220.443 108.264C220.625 106.933 220.789 105.586 220.935 104.267H223.32C223.516 107.07 223.494 109.883 223.256 112.682C223.147 114.133 222.925 115.573 222.594 116.989C222.416 117.759 222.173 118.511 221.867 119.239C221.497 120.167 220.924 121 220.191 121.677C219.651 122.15 218.993 122.468 218.287 122.597C217.587 122.714 216.869 122.652 216.201 122.416C215.515 122.169 214.818 121.964 214.138 121.683C212.758 121.144 211.422 120.5 210.141 119.755C208.841 118.982 207.611 118.096 206.467 117.106C205.887 116.592 205.339 116.042 204.826 115.46C204.563 115.167 204.305 114.874 204.059 114.534L203.695 114.018C203.566 113.825 203.479 113.69 203.297 113.374L207.487 111.071Z" fill="#FFC3BD"/>
<path d="M206.684 108.902C212.163 112.418 211.718 114.551 211.718 114.551L208.272 119.544C208.272 119.544 199.482 116.028 198.937 113.268C198.363 110.391 204.024 107.203 206.684 108.902Z" fill="#263238"/>
<path opacity="0.1" d="M206.684 108.902C212.163 112.418 211.718 114.551 211.718 114.551L208.272 119.544C208.272 119.544 199.482 116.028 198.937 113.268C198.363 110.391 204.024 107.203 206.684 108.902Z" fill="white"/>
<path d="M212.047 114.059C212.149 114.131 212.218 114.241 212.24 114.363C212.262 114.486 212.235 114.613 212.164 114.716L208.648 119.761C208.614 119.813 208.569 119.857 208.517 119.891C208.465 119.925 208.406 119.948 208.345 119.959C208.284 119.97 208.221 119.969 208.16 119.955C208.1 119.941 208.042 119.915 207.992 119.878C207.941 119.843 207.898 119.797 207.865 119.745C207.832 119.693 207.81 119.634 207.8 119.573C207.789 119.512 207.791 119.45 207.805 119.389C207.819 119.329 207.845 119.272 207.881 119.222L211.397 114.176C211.469 114.076 211.577 114.008 211.698 113.986C211.82 113.964 211.945 113.99 212.047 114.059Z" fill="#407BFF"/>
<path d="M221.323 105.416L218.604 101.782L223.819 100.44C223.819 100.44 224.88 103.675 223.145 106.048L221.323 105.416Z" fill="#FFC3BD"/>
<path d="M218.75 97.317L223.092 96.5845L223.819 100.44L218.604 101.782L218.75 97.317Z" fill="#FFC3BD"/>
<path d="M174.566 238.854L179.536 239.334L183.087 227.649L178.118 227.169L174.566 238.854Z" fill="#FFC3BD"/>
<path d="M142.951 221.584L146.637 225.042L154.595 216.299L150.909 212.841L142.951 221.584Z" fill="#FFC3BD"/>
<path d="M148.343 223.383L145.571 218.396C145.525 218.309 145.45 218.242 145.358 218.207C145.266 218.173 145.164 218.173 145.073 218.209L140.807 219.832C140.698 219.876 140.6 219.943 140.52 220.029C140.439 220.115 140.378 220.217 140.341 220.328C140.304 220.439 140.291 220.557 140.304 220.674C140.316 220.791 140.354 220.903 140.414 221.004C141.41 222.727 141.979 223.512 143.192 225.692C143.942 227.04 145.401 230.14 146.438 232.003C147.475 233.867 149.368 232.947 149.11 232.074C147.938 228.177 148.149 226.008 148.483 224.291C148.544 223.982 148.494 223.66 148.343 223.383Z" fill="#263238"/>
<path d="M180.127 237.816H174.097C173.99 237.818 173.886 237.855 173.8 237.92C173.715 237.985 173.653 238.076 173.623 238.18L172.31 242.95C172.279 243.063 172.275 243.181 172.298 243.296C172.32 243.411 172.369 243.519 172.441 243.611C172.513 243.704 172.605 243.779 172.71 243.83C172.815 243.881 172.931 243.906 173.048 243.905C175.17 243.905 176.178 243.905 178.826 243.905H186.931C189.134 243.905 189.591 241.678 188.689 241.479C184.587 240.576 182.243 239.328 180.983 238.139C180.751 237.923 180.444 237.808 180.127 237.816Z" fill="#263238"/>
<path opacity="0.2" d="M183.087 227.655L181.258 233.674H176.137L178.117 227.175L183.087 227.655Z" fill="black"/>
<path opacity="0.2" d="M150.909 212.841L154.595 216.305L150.493 220.811L146.807 217.348L150.909 212.841Z" fill="black"/>
<path d="M206.685 108.902C206.685 108.902 208.677 110.256 196.049 137.692L176.166 132.19C178.739 124.185 180.133 119.198 180.854 101.519C183.798 101.714 186.724 102.123 189.609 102.743C192.673 103.362 195.688 104.198 198.633 105.246C201.379 106.324 204.066 107.545 206.685 108.902Z" fill="#263238"/>
<path opacity="0.1" d="M206.685 108.902C206.685 108.902 208.677 110.256 196.049 137.692L176.166 132.19C178.739 124.185 180.133 119.198 180.854 101.519C183.798 101.714 186.724 102.123 189.609 102.743C192.673 103.362 195.688 104.198 198.633 105.246C201.379 106.324 204.066 107.545 206.685 108.902Z" fill="white"/>
<path d="M193.323 92.8223C193.089 95.887 192.18 101.366 189.614 102.743C189.614 102.743 188.119 107.824 194.601 109.693C200.091 111.27 198.638 105.245 198.638 105.245C195.614 103.575 197.466 100.616 198.052 97.2993L193.323 92.8223Z" fill="#FFC3BD"/>
<path opacity="0.2" d="M193.295 92.8281C193.108 95.2835 192.492 99.3151 190.916 101.507C192.744 101.688 195.604 101.132 196.448 99.7488C196.865 98.7793 197.204 97.7779 197.462 96.7543L193.295 92.8281Z" fill="black"/>
<path d="M201.363 88.3864C201.363 93.426 201.451 95.5649 199.066 98.2898C195.474 102.392 189.285 101.273 187.791 96.3267C186.449 91.879 186.695 84.384 191.5 82.0928C192.556 81.5829 193.725 81.3515 194.895 81.4207C196.066 81.4898 197.199 81.8573 198.188 82.488C199.176 83.1188 199.987 83.9918 200.542 85.0242C201.098 86.0566 201.381 87.214 201.363 88.3864Z" fill="#FFC3BD"/>
<path d="M190.951 85.5912C193.781 89.5467 203.304 95.0434 203.942 89.7459C204.581 84.4485 199.717 79.1979 194.9 79.7195C190.084 80.241 188.531 82.2276 190.951 85.5912Z" fill="#263238"/>
<path d="M203.449 93.0921C203.236 93.5256 202.939 93.9128 202.576 94.2315C202.213 94.5503 201.791 94.7943 201.334 94.9497C200.109 95.354 199.435 94.2758 199.722 93.0862C199.986 92.0138 200.935 90.5137 202.195 90.625C202.469 90.6532 202.731 90.7496 202.958 90.9054C203.185 91.0612 203.369 91.2714 203.494 91.5168C203.619 91.7623 203.68 92.035 203.672 92.3102C203.664 92.5854 203.588 92.8542 203.449 93.0921Z" fill="#FFC3BD"/>
<path d="M196.049 137.71C196.049 137.71 203.128 166.383 198.487 188.071C195.375 202.598 184.159 231.945 184.159 231.945L175.369 231.722C175.369 231.722 183.86 200.928 185.612 188.815C188.619 168.094 181.464 133.678 181.464 133.678L196.049 137.71Z" fill="#407BFF"/>
<path opacity="0.2" d="M188.155 141.812L183.771 148.727C185.084 156.926 185.915 165.195 186.262 173.491C192.444 162.457 189.526 147.672 188.155 141.812Z" fill="black"/>
<path d="M185.73 232.384L174.566 232.109L175.316 228.136L186.544 228.98L185.73 232.384Z" fill="#263238"/>
<path d="M191.688 136.538C191.688 136.538 187.586 167.889 178.755 185.703C171.612 200.09 152.549 220.57 152.549 220.57L147.674 215.548C147.674 215.548 160.566 193.28 165.84 183.735C178.861 160.295 167.322 139.286 176.148 132.167L191.688 136.538Z" fill="#407BFF"/>
<path d="M153.042 221.256L146.754 215.121L148.84 212.285L155.696 219.369L153.042 221.256Z" fill="#263238"/>
<path d="M176.189 130.936L174.8 132.471C174.695 132.589 174.8 132.776 175.047 132.841L195.902 138.613C196.078 138.66 196.254 138.613 196.295 138.507L196.969 136.749C197.016 136.632 196.887 136.485 196.693 136.427L176.558 130.854C176.495 130.834 176.428 130.832 176.363 130.846C176.298 130.86 176.238 130.891 176.189 130.936Z" fill="#407BFF"/>
<path opacity="0.5" d="M176.189 130.936L174.8 132.471C174.695 132.589 174.8 132.776 175.047 132.841L195.902 138.613C196.078 138.66 196.254 138.613 196.295 138.507L196.969 136.749C197.016 136.632 196.887 136.485 196.693 136.427L176.558 130.854C176.495 130.834 176.428 130.832 176.363 130.846C176.298 130.86 176.238 130.891 176.189 130.936Z" fill="white"/>
<path d="M178.27 133.936L177.731 133.79C177.626 133.761 177.561 133.679 177.585 133.614L178.476 131.376C178.505 131.305 178.616 131.276 178.722 131.305L179.261 131.458C179.366 131.458 179.437 131.563 179.407 131.633L178.517 133.872C178.488 133.908 178.449 133.934 178.404 133.945C178.36 133.957 178.313 133.954 178.27 133.936Z" fill="#407BFF"/>
<path d="M194.331 138.384L193.792 138.237C193.686 138.208 193.616 138.126 193.645 138.062L194.536 135.817C194.564 135.781 194.604 135.755 194.648 135.744C194.693 135.732 194.74 135.735 194.782 135.753L195.321 135.905C195.427 135.934 195.491 136.011 195.468 136.075L194.577 138.296C194.548 138.384 194.466 138.413 194.331 138.384Z" fill="#407BFF"/>
<path d="M186.304 136.163L185.765 136.011C185.653 136.011 185.589 135.905 185.612 135.841L186.509 133.596C186.509 133.532 186.644 133.503 186.749 133.532L187.288 133.678C187.4 133.678 187.464 133.79 187.441 133.854L186.544 136.099C186.521 136.163 186.409 136.192 186.304 136.163Z" fill="#407BFF"/>
<path d="M193.827 90.2439C193.827 90.6541 193.651 90.9999 193.388 91.0116C193.124 91.0233 192.884 90.7127 192.854 90.3025C192.825 89.8923 193.03 89.5466 193.3 89.529C193.569 89.5114 193.804 89.8279 193.827 90.2439Z" fill="#263238"/>
<path d="M189.192 90.5077C189.192 90.9179 189.017 91.2637 188.747 91.2812C188.477 91.2988 188.249 90.9765 188.22 90.5663C188.19 90.1561 188.395 89.8104 188.665 89.7987C188.935 89.7869 189.192 90.1034 189.192 90.5077Z" fill="#263238"/>
<path d="M188.795 89.8106L187.799 89.5879C187.799 89.5879 188.344 90.3262 188.795 89.8106Z" fill="#263238"/>
<path d="M190.465 91.1406C190.155 92.0936 189.717 93.0003 189.164 93.8362C189.381 93.9727 189.625 94.0603 189.879 94.0926C190.133 94.125 190.391 94.1015 190.635 94.0237L190.465 91.1406Z" fill="#ED847E"/>
<path d="M192.914 95.4184C192.671 95.4814 192.421 95.5187 192.17 95.5298C192.157 95.5314 192.143 95.5303 192.131 95.5263C192.118 95.5223 192.106 95.5157 192.096 95.5068C192.086 95.4979 192.078 95.487 192.073 95.4748C192.067 95.4626 192.065 95.4494 192.065 95.436C192.064 95.4229 192.066 95.4098 192.07 95.3974C192.074 95.385 192.081 95.3736 192.09 95.3638C192.098 95.354 192.109 95.346 192.121 95.3403C192.133 95.3346 192.145 95.3313 192.158 95.3305C192.671 95.3098 193.171 95.1698 193.62 94.9215C194.068 94.6733 194.453 94.3238 194.743 93.9007C194.758 93.8822 194.779 93.8696 194.802 93.8654C194.826 93.8611 194.85 93.8654 194.87 93.8774C194.891 93.8895 194.907 93.9085 194.914 93.9311C194.922 93.9536 194.921 93.9782 194.913 94.0003C194.451 94.7099 193.737 95.217 192.914 95.4184Z" fill="#263238"/>
<path d="M195.358 87.2494C195.325 87.258 195.29 87.2576 195.257 87.2484C195.224 87.2391 195.194 87.2213 195.17 87.1967C194.957 86.9717 194.693 86.8012 194.401 86.6992C194.108 86.5973 193.795 86.5669 193.489 86.6107C193.437 86.6198 193.383 86.6093 193.339 86.5811C193.294 86.5529 193.262 86.5091 193.248 86.4583C193.238 86.4063 193.248 86.3523 193.276 86.3075C193.304 86.2627 193.349 86.2306 193.401 86.218C193.772 86.1585 194.152 86.1892 194.509 86.3075C194.866 86.4258 195.189 86.6283 195.452 86.8978C195.488 86.9368 195.508 86.9881 195.508 87.0414C195.508 87.0946 195.488 87.1459 195.452 87.1849C195.426 87.2134 195.394 87.2355 195.358 87.2494Z" fill="#263238"/>
<path d="M187.188 87.8414C187.157 87.86 187.122 87.8699 187.086 87.8699C187.049 87.8699 187.014 87.86 186.983 87.8414C186.942 87.81 186.914 87.7636 186.906 87.7121C186.899 87.6606 186.912 87.6082 186.942 87.566C187.158 87.2585 187.445 87.0075 187.779 86.8341C188.112 86.6607 188.482 86.5701 188.858 86.5698C188.884 86.5713 188.91 86.578 188.934 86.5894C188.957 86.6008 188.978 86.6168 188.996 86.6364C189.013 86.656 189.027 86.6788 189.035 86.7036C189.044 86.7284 189.047 86.7546 189.046 86.7808C189.044 86.807 189.038 86.8326 189.026 86.8562C189.015 86.8798 188.999 86.9009 188.979 86.9183C188.96 86.9358 188.937 86.9491 188.912 86.9577C188.887 86.9663 188.861 86.9699 188.835 86.9683C188.526 86.9732 188.223 87.0512 187.95 87.1958C187.677 87.3405 187.442 87.5476 187.264 87.8004C187.242 87.8197 187.216 87.8337 187.188 87.8414Z" fill="#263238"/>
<path d="M181.323 109.072C180.813 109.846 180.35 110.467 179.829 111.123C179.307 111.779 178.798 112.395 178.258 113.004C177.177 114.229 176.027 115.391 174.813 116.485C173.606 117.601 172.325 118.634 170.98 119.579C170.318 120.071 169.609 120.499 168.918 120.944L167.833 121.566L167.294 121.87C167.095 121.976 166.837 122.116 166.591 122.216C165.505 122.707 164.298 122.866 163.122 122.673C162.012 122.463 160.974 121.971 160.11 121.243C159.38 120.635 158.738 119.929 158.2 119.145C157.703 118.434 157.263 117.686 156.881 116.907C155.491 113.955 154.532 110.82 154.033 107.595L156.377 107.056C156.864 108.451 157.409 109.898 158.024 111.252C158.6 112.605 159.28 113.912 160.057 115.161C160.705 116.291 161.565 117.285 162.589 118.091C162.93 118.352 163.334 118.516 163.761 118.565C164.133 118.581 164.503 118.492 164.827 118.307C164.941 118.25 165.05 118.185 165.155 118.114L165.613 117.821L166.521 117.235C167.107 116.801 167.693 116.397 168.279 115.934C169.433 115.03 170.54 114.068 171.596 113.051C172.668 112.037 173.67 110.953 174.637 109.84C175.123 109.283 175.598 108.72 176.055 108.146C176.512 107.572 176.969 106.974 177.338 106.447L181.323 109.072Z" fill="#FFC3BD"/>
<path d="M156.829 109.219L157.344 103.751L152.428 105.761C152.428 105.761 153.014 108.51 154.889 109.494L156.829 109.219Z" fill="#FFC3BD"/>
<path d="M155.774 100.798L151.971 99.9717L152.428 105.761L157.344 103.751L155.774 100.798Z" fill="#FFC3BD"/>
<path d="M180.86 101.519C178.299 101.519 172.135 111.293 172.135 111.293L176.489 115.805C176.489 115.805 184.693 110.273 185.015 107.015C185.296 104.214 184.118 101.548 180.86 101.519Z" fill="#263238"/>
<path opacity="0.1" d="M180.86 101.519C178.299 101.519 172.135 111.293 172.135 111.293L176.489 115.805C176.489 115.805 184.693 110.273 185.015 107.015C185.296 104.214 184.118 101.548 180.86 101.519Z" fill="white"/>
<path d="M176.887 116.028C176.8 116.116 176.68 116.165 176.556 116.165C176.432 116.165 176.313 116.116 176.225 116.028L171.824 111.715C171.737 111.627 171.687 111.508 171.688 111.384C171.687 111.26 171.737 111.141 171.824 111.053C171.913 110.965 172.033 110.916 172.158 110.916C172.284 110.916 172.404 110.965 172.492 111.053L176.887 115.36C176.975 115.449 177.025 115.569 177.025 115.694C177.025 115.819 176.975 115.939 176.887 116.028Z" fill="#407BFF"/>
<path d="M149.345 226.067C149.505 226.063 149.66 226.005 149.784 225.903C149.843 225.865 149.89 225.812 149.92 225.749C149.95 225.685 149.962 225.615 149.954 225.546C149.901 224.913 148.296 224.051 148.108 223.952C148.092 223.942 148.074 223.937 148.055 223.937C148.037 223.937 148.018 223.942 148.003 223.952C147.986 223.963 147.974 223.98 147.968 223.999C147.961 224.018 147.961 224.038 147.967 224.057C148.149 224.702 148.553 225.815 149.139 226.02C149.204 226.048 149.274 226.064 149.345 226.067ZM148.173 224.245C148.759 224.561 149.673 225.171 149.702 225.563C149.706 225.598 149.699 225.634 149.682 225.666C149.666 225.697 149.64 225.723 149.608 225.739C149.549 225.795 149.476 225.834 149.397 225.852C149.318 225.871 149.235 225.868 149.157 225.844C148.841 225.727 148.477 225.135 148.173 224.245Z" fill="#407BFF"/>
<path d="M149.561 224.497C149.814 224.516 150.067 224.452 150.282 224.315C150.352 224.257 150.4 224.176 150.417 224.086C150.434 223.996 150.419 223.903 150.375 223.823C150.344 223.738 150.294 223.662 150.229 223.6C150.164 223.538 150.086 223.492 150 223.465C149.315 223.225 148.037 223.922 147.984 223.952C147.969 223.961 147.956 223.974 147.947 223.989C147.938 224.005 147.933 224.022 147.932 224.04C147.932 224.057 147.936 224.074 147.944 224.089C147.952 224.105 147.964 224.118 147.979 224.127C148.472 224.367 149.012 224.494 149.561 224.497ZM149.66 223.612C149.754 223.612 149.847 223.627 149.936 223.659C149.994 223.676 150.047 223.707 150.091 223.748C150.135 223.79 150.168 223.842 150.188 223.899C150.252 224.051 150.188 224.122 150.153 224.163C149.854 224.415 148.799 224.274 148.254 224.04C148.69 223.806 149.168 223.661 149.66 223.612Z" fill="#407BFF"/>
<path d="M182.8 238.789C183.21 238.82 183.619 238.724 183.972 238.514C184.063 238.446 184.137 238.357 184.188 238.256C184.239 238.154 184.265 238.042 184.265 237.928C184.273 237.869 184.263 237.809 184.238 237.755C184.214 237.702 184.174 237.656 184.124 237.623C183.579 237.248 181.388 238.256 181.142 238.373C181.122 238.382 181.105 238.397 181.095 238.416C181.084 238.435 181.08 238.457 181.083 238.479C181.085 238.499 181.094 238.518 181.108 238.532C181.121 238.547 181.139 238.557 181.159 238.561C181.697 238.695 182.247 238.771 182.8 238.789ZM183.761 237.752C183.846 237.747 183.932 237.765 184.007 237.805C184.036 237.805 184.066 237.858 184.06 237.94C184.059 238.02 184.039 238.1 184.001 238.171C183.963 238.242 183.909 238.304 183.843 238.35C183.351 238.725 182.15 238.567 181.499 238.449C182.212 238.099 182.975 237.864 183.761 237.752Z" fill="#407BFF"/>
<path d="M181.176 238.584H181.211C181.873 238.314 183.25 237.207 183.174 236.656C183.174 236.539 183.08 236.392 182.781 236.357C181.609 236.222 181.099 238.373 181.076 238.467C181.073 238.485 181.074 238.504 181.08 238.521C181.086 238.539 181.097 238.554 181.111 238.566C181.131 238.578 181.153 238.584 181.176 238.584ZM182.676 236.545H182.746C182.951 236.545 182.963 236.644 182.969 236.674C183.016 237.025 182.031 237.922 181.316 238.297C181.475 237.799 181.92 236.545 182.676 236.545Z" fill="#407BFF"/>
<path d="M193.418 89.541L192.422 89.3184C192.422 89.3184 192.967 90.0567 193.418 89.541Z" fill="#263238"/>
<path d="M89.8728 241.251L156.149 235.464C160.65 235.072 163.98 231.104 163.587 226.603L149.783 68.5043C149.39 64.0035 145.423 60.6734 140.922 61.0664L74.6456 66.8531C70.1448 67.2461 66.8147 71.2134 67.2077 75.7143L81.0117 233.813C81.4047 238.314 85.372 241.644 89.8728 241.251Z" fill="#407BFF"/>
<path d="M72.1685 122.41C72.7824 122.351 73.3488 122.054 73.7448 121.581C74.1407 121.108 74.3345 120.498 74.2839 119.884L72.4615 99.034C72.4048 98.42 72.1086 97.8532 71.637 97.4561C71.1653 97.0591 70.5562 96.8638 69.9417 96.9126C69.3267 96.9693 68.7588 97.2663 68.3616 97.7392C67.9644 98.2122 67.7699 98.8228 67.8203 99.4383L69.6487 120.288C69.7053 120.902 70.0015 121.469 70.4732 121.866C70.9448 122.263 71.5539 122.458 72.1685 122.41Z" fill="#407BFF"/>
<path d="M153.117 105.918L153.928 105.848C154.879 105.765 155.583 104.926 155.5 103.975L154.388 91.2371C154.305 90.2859 153.466 89.5822 152.515 89.6653L151.704 89.7361C150.753 89.8192 150.049 90.6575 150.132 91.6086L151.244 104.347C151.327 105.298 152.166 106.002 153.117 105.918Z" fill="#263238"/>
<path d="M154.068 127.362L154.883 127.289C155.837 127.203 156.542 126.359 156.456 125.405L155.305 112.618C155.219 111.663 154.375 110.959 153.421 111.045L152.606 111.118C151.651 111.204 150.947 112.048 151.033 113.003L152.184 125.789C152.27 126.744 153.113 127.448 154.068 127.362Z" fill="#263238"/>
<path d="M91.2654 241.126L157.542 235.339C162.043 234.947 165.373 230.979 164.98 226.478L151.176 68.3793C150.783 63.8785 146.816 60.5484 142.315 60.9414L76.0382 66.7281C71.5374 67.1211 68.2072 71.0884 68.6002 75.5892L82.4043 233.688C82.7973 238.189 86.7645 241.519 91.2654 241.126Z" fill="#263238"/>
<path opacity="0.4" d="M84.738 231.282L162.237 224.514C162.642 224.477 163.015 224.281 163.277 223.969C163.538 223.657 163.665 223.255 163.631 222.85L150.517 72.4822C150.479 72.0782 150.284 71.7053 149.974 71.4442C149.663 71.1831 149.262 71.0549 148.858 71.0875L71.3303 77.8617C71.1302 77.8793 70.9356 77.9363 70.7575 78.0292C70.5794 78.1221 70.4214 78.2492 70.2924 78.4032C70.1635 78.5572 70.0661 78.7351 70.0059 78.9267C69.9457 79.1183 69.9238 79.32 69.9415 79.52L83.0796 229.893C83.0966 230.094 83.153 230.289 83.2457 230.467C83.3383 230.646 83.4654 230.804 83.6196 230.933C83.7738 231.062 83.9519 231.16 84.1439 231.22C84.3359 231.28 84.5378 231.301 84.738 231.282Z" fill="#407BFF"/>
<path opacity="0.3" d="M138.614 71.9839L128.875 227.426L112.678 228.844L122.417 73.3961L138.614 71.9839Z" fill="#407BFF"/>
<path opacity="0.2" d="M117.77 66.9953L101.22 68.4403C100.836 68.4738 100.553 68.812 100.586 69.1957L100.645 69.867C100.678 70.2507 101.016 70.5346 101.4 70.5011L117.95 69.056C118.334 69.0225 118.618 68.6843 118.584 68.3007L118.526 67.6293C118.492 67.2457 118.154 66.9618 117.77 66.9953Z" fill="white"/>
<path d="M102.347 127.232H182.986C185.081 127.238 187.088 128.073 188.569 129.554C190.05 131.035 190.885 133.042 190.891 135.137V174.692C190.885 176.787 190.05 178.795 188.569 180.277C187.088 181.759 185.081 182.595 182.986 182.603H155.081L142.663 195.02L130.246 182.603H102.347C100.25 182.597 98.2417 181.761 96.7595 180.279C95.2772 178.797 94.4417 176.788 94.4355 174.692V135.137C94.4417 133.041 95.2774 131.033 96.7598 129.552C98.2422 128.071 100.251 127.237 102.347 127.232Z" fill="#FFF240"/>
<path opacity="0.3" d="M102.911 127H183.55C185.645 127.006 187.652 127.841 189.133 129.322C190.615 130.803 191.449 132.81 191.456 134.905V174.46C191.449 176.555 190.615 178.563 189.134 180.045C187.653 181.527 185.646 182.363 183.55 182.371H155.645L143.228 194.788L130.81 182.371H102.911C100.815 182.364 98.8062 181.529 97.3239 180.047C95.8416 178.564 95.0062 176.556 95 174.46V134.905C95.0062 132.809 95.8418 130.801 97.3243 129.32C98.8067 127.838 100.815 127.004 102.911 127Z" fill="white"/>
<path d="M152.275 153.531C152.275 159.033 147.814 163.493 142.313 163.493C136.811 163.493 132.351 159.033 132.351 153.531C132.351 148.029 136.811 143.569 142.313 143.569C147.814 143.569 152.275 148.029 152.275 153.531Z" fill="white"/>
<path d="M142.9 138.881C150.991 138.881 157.55 145.44 157.55 153.531C157.55 161.622 150.991 168.181 142.9 168.181C140.213 168.181 137.696 167.458 135.531 166.196L128.256 168.181L130.237 160.902C128.974 158.737 128.25 156.219 128.25 153.531C128.25 145.44 134.809 138.881 142.9 138.881ZM137.613 146.658C137.424 146.671 137.238 146.718 137.069 146.804C136.942 146.869 136.824 146.963 136.639 147.138C136.464 147.303 136.363 147.447 136.256 147.586C135.714 148.291 135.423 149.157 135.429 150.046C135.431 150.765 135.618 151.463 135.913 152.116C136.511 153.438 137.497 154.836 138.799 156.133C139.112 156.444 139.419 156.759 139.749 157.05C141.366 158.474 143.292 159.5 145.375 160.048C145.375 160.048 146.196 160.174 146.208 160.175C146.48 160.189 146.751 160.17 147.023 160.156C147.45 160.134 147.866 160.018 148.243 159.818C148.486 159.688 148.601 159.624 148.804 159.496C148.804 159.496 148.867 159.454 148.987 159.364C149.185 159.217 149.307 159.113 149.471 158.942C149.593 158.816 149.697 158.667 149.778 158.5C149.892 158.261 150.007 157.804 150.053 157.425C150.088 157.136 150.078 156.977 150.074 156.879C150.068 156.722 149.937 156.56 149.795 156.491L148.943 156.108C148.943 156.108 147.669 155.553 146.89 155.198C146.809 155.161 146.72 155.144 146.631 155.138C146.435 155.126 146.216 155.177 146.077 155.324C146.07 155.321 145.973 155.405 144.913 156.689C144.854 156.759 144.717 156.911 144.48 156.897C144.445 156.894 144.409 156.889 144.374 156.88C144.278 156.855 144.185 156.821 144.094 156.783C143.912 156.706 143.849 156.677 143.725 156.623C142.879 156.254 142.103 155.759 141.417 155.155C141.233 154.993 141.062 154.818 140.886 154.647C140.27 154.05 139.766 153.416 139.391 152.79C139.371 152.756 139.339 152.706 139.305 152.651C139.244 152.551 139.176 152.433 139.155 152.351C139.1 152.136 139.245 151.962 139.245 151.962C139.245 151.962 139.601 151.573 139.767 151.361C139.926 151.157 140.064 150.957 140.152 150.815C140.324 150.537 140.379 150.251 140.288 150.029C139.877 149.027 139.453 148.031 139.016 147.04C138.93 146.844 138.673 146.702 138.44 146.675C138.361 146.666 138.282 146.657 138.203 146.652C138.006 146.642 137.809 146.644 137.613 146.658Z" fill="#25D366"/>
<path d="M109.163 139.247C113.859 134.551 113.859 126.938 109.163 122.242C104.467 117.546 96.853 117.546 92.1571 122.242C87.4611 126.938 87.4611 134.551 92.1571 139.247C96.853 143.943 104.467 143.943 109.163 139.247Z" fill="#DE5753"/>
<path d="M102.979 138.073H100.178V127.525C99.1427 128.488 97.9084 129.213 96.5625 129.647V127.109C97.4268 126.792 98.2312 126.33 98.9417 125.744C99.7417 125.149 100.352 124.335 100.7 123.4H102.973L102.979 138.073Z" fill="white"/>
<path d="M168.313 56.2089C167.896 56.2055 167.493 56.054 167.178 55.7813C166.862 55.5086 166.654 55.1326 166.59 54.7205C165.786 49.4376 162.92 44.6889 158.621 41.5155C154.321 38.342 148.939 37.0026 143.654 37.791C143.225 37.8022 142.806 37.6562 142.478 37.3803C142.149 37.1044 141.932 36.7178 141.869 36.2933C141.805 35.8689 141.9 35.4359 142.133 35.0759C142.367 34.716 142.725 34.454 143.138 34.3394C149.338 33.4152 155.651 34.9875 160.694 38.7115C165.736 42.4355 169.095 48.0073 170.036 54.2048C170.1 54.6611 169.982 55.1243 169.708 55.4947C169.434 55.8651 169.026 56.1132 168.571 56.1855C168.486 56.2018 168.399 56.2096 168.313 56.2089Z" fill="#407BFF"/>
<path d="M159.646 57.5099C159.23 57.5067 158.828 57.3559 158.513 57.0845C158.198 56.813 157.989 56.4384 157.923 56.0273C157.471 53.0403 155.852 50.3548 153.422 48.5598C150.992 46.7648 147.949 46.0068 144.961 46.4521C144.531 46.4649 144.112 46.32 143.782 46.0446C143.452 45.7692 143.234 45.3825 143.17 44.9575C143.106 44.5325 143.2 44.0987 143.434 43.7381C143.667 43.3776 144.025 43.1151 144.44 43.0005C148.343 42.4174 152.318 43.4066 155.493 45.751C158.668 48.0954 160.784 51.6036 161.375 55.5058C161.441 55.9629 161.324 56.4276 161.05 56.7994C160.776 57.1711 160.366 57.42 159.91 57.4923C159.823 57.504 159.734 57.5099 159.646 57.5099Z" fill="#407BFF"/>
<path d="M150.986 58.8168C150.569 58.8134 150.166 58.6618 149.851 58.3891C149.535 58.1165 149.327 57.7405 149.263 57.3283C149.212 56.9855 149.094 56.6562 148.915 56.3591C148.737 56.0621 148.502 55.8032 148.223 55.5974C147.944 55.3916 147.627 55.2429 147.291 55.1598C146.955 55.0767 146.605 55.0609 146.262 55.1133C145.837 55.1191 145.424 54.9705 145.1 54.6951C144.776 54.4198 144.563 54.0362 144.5 53.6156C144.437 53.195 144.529 52.7658 144.758 52.4076C144.987 52.0495 145.338 51.7865 145.747 51.6676C146.544 51.5472 147.358 51.5858 148.14 51.7811C148.923 51.9764 149.659 52.3245 150.307 52.8054C150.954 53.2863 151.501 53.8905 151.914 54.5833C152.327 55.276 152.599 56.0436 152.714 56.842C152.778 57.2982 152.661 57.7614 152.387 58.1318C152.113 58.5023 151.704 58.7503 151.249 58.8226C151.161 58.8294 151.073 58.8274 150.986 58.8168Z" fill="#407BFF"/>
</g>
<defs>
<clipPath id="clip0_3564_28865">
<rect width="293" height="293" fill="white" transform="translate(0.5)"/>
</clipPath>
</defs>
</svg>
